<svg width="664" height="601" viewBox="0 0 664 601" fill="none" xmlns="http://www.w3.org/2000/svg">
<g clip-path="url(#clip0_55_1261)">
<rect width="618.151" height="501.862" rx="10.9774" transform="matrix(0.996045 -0.0888552 0.0854883 0.996339 4.88257 114.636)" fill="#9BDEDE" fill-opacity="0.2"/>
<g filter="url(#filter0_d_55_1261)">
<g filter="url(#filter1_d_55_1261)">
<rect x="39.3284" y="149.249" width="585.896" height="351.538" rx="8.27148" transform="rotate(-0.279445 39.3284 149.249)" fill="white"/>
<path opacity="0.7" d="M56.8345 418.205L54.32 418.217L54.3129 416.762L58.3824 416.742L58.4408 428.702L56.8858 428.71L56.8345 418.205ZM70.3588 424.376L67.3315 424.391L67.3523 428.659L65.7311 428.667L65.6728 416.706L70.3213 416.684C72.6703 416.672 74.1832 418.203 74.1945 420.503C74.2053 422.736 72.6913 424.365 70.3588 424.376ZM70.0471 418.141L67.301 418.154L67.3244 422.935L70.0043 422.922C71.6089 422.914 72.4976 421.967 72.4905 420.495C72.4831 418.989 71.5691 418.133 70.0471 418.141ZM80.3978 420.439L80.4048 421.862L79.71 421.865C78.2377 421.873 77.3322 422.77 77.3397 424.325L77.3606 428.61L75.8056 428.618L75.7663 420.545L77.222 420.538L77.3272 421.761C77.654 420.916 78.4618 420.35 79.5702 420.344C79.8514 420.343 80.0832 420.375 80.3978 420.439ZM81.0562 424.539C81.044 422.041 82.822 420.279 85.2538 420.267C87.6691 420.255 89.4642 422 89.4764 424.498C89.4886 426.996 87.7105 428.758 85.2953 428.77C82.8635 428.782 81.0683 427.037 81.0562 424.539ZM82.6277 424.531C82.6359 426.219 83.7169 427.388 85.2885 427.38C86.8435 427.373 87.9296 426.193 87.9214 424.505C87.9132 422.818 86.8156 421.649 85.2606 421.656C83.689 421.664 82.6195 422.844 82.6277 424.531ZM91.2352 432.165L91.1781 420.453L92.5842 420.446L92.7071 421.901C93.2476 420.79 94.3366 420.206 95.6269 420.2C97.9429 420.188 99.3906 421.918 99.4027 424.4C99.4147 426.865 98.0673 428.724 95.6686 428.736C94.3782 428.742 93.3003 428.201 92.7661 427.211L92.7902 432.158L91.2352 432.165ZM92.7694 424.498C92.7775 426.153 93.7428 427.339 95.3309 427.331C96.919 427.323 97.8561 426.128 97.848 424.474C97.8399 422.803 96.8911 421.616 95.303 421.624C93.7149 421.632 92.7612 422.811 92.7694 424.498ZM104.628 428.676C102.246 428.687 100.6 426.975 100.588 424.46C100.575 421.929 102.171 420.168 104.52 420.156C106.82 420.145 108.333 421.726 108.345 424.125L108.348 424.704L102.095 424.751C102.219 426.454 103.117 427.393 104.655 427.385C105.863 427.379 106.654 426.879 106.914 425.951L108.37 425.944C107.982 427.683 106.63 428.666 104.628 428.676ZM104.527 421.463C103.17 421.47 102.314 422.285 102.123 423.708L106.788 423.685C106.781 422.346 105.9 421.456 104.527 421.463ZM114.695 420.272L114.702 421.695L114.007 421.698C112.535 421.705 111.629 422.603 111.637 424.158L111.658 428.443L110.103 428.45L110.063 420.377L111.519 420.37L111.624 421.594C111.951 420.749 112.759 420.182 113.867 420.177C114.149 420.176 114.38 420.207 114.695 420.272ZM118.799 428.408L117.244 428.415L117.211 421.633L115.623 421.641L115.617 420.334L117.205 420.326L117.192 417.795L118.747 417.787L118.76 420.318L120.348 420.311L120.354 421.618L118.766 421.625L118.799 428.408ZM121.023 432.02L121.017 430.746L122.059 430.741C122.803 430.737 123.398 430.619 123.774 429.591L124.051 428.812L120.751 420.309L122.389 420.301L124.769 426.807L127.136 420.278L128.741 420.27L124.968 430.198C124.429 431.59 123.621 432.173 122.38 432.179C121.868 432.181 121.437 432.117 121.023 432.02Z" fill="#070C13"/>
<path opacity="0.7" d="M55.507 310.685L58.2842 306.883L60.1701 306.874L57.1952 310.859C57.608 310.691 58.0377 310.607 58.4512 310.605C60.9327 310.593 62.6122 312.371 62.6237 314.737C62.6359 317.235 60.7588 319.03 58.2939 319.042C55.8125 319.055 53.8844 317.195 53.8726 314.779C53.8657 313.357 54.2909 312.362 55.507 310.685ZM55.527 314.788C55.535 316.426 56.6656 317.595 58.2868 317.587C59.8749 317.579 60.9941 316.399 60.9861 314.761C60.9781 313.123 59.8475 311.971 58.2594 311.979C56.6382 311.987 55.519 313.15 55.527 314.788ZM73.868 314.5L70.8407 314.515L70.8615 318.783L69.2403 318.791L69.182 306.83L73.8305 306.807C76.1796 306.796 77.6925 308.327 77.7037 310.627C77.7146 312.86 76.2006 314.488 73.868 314.5ZM73.5564 308.265L70.8103 308.278L70.8336 313.059L73.5135 313.046C75.1182 313.038 76.0069 312.091 75.9997 310.618C75.9924 309.113 75.0783 308.257 73.5564 308.265ZM83.9071 310.563L83.914 311.986L83.2192 311.989C81.7469 311.996 80.8414 312.894 80.849 314.449L80.8699 318.734L79.3149 318.741L79.2755 310.669L80.7313 310.661L80.8365 311.885C81.1632 311.04 81.9711 310.473 83.0795 310.468C83.3607 310.467 83.5924 310.499 83.9071 310.563ZM84.5654 314.663C84.5532 312.165 86.3313 310.403 88.7631 310.391C91.1783 310.379 92.9735 312.124 92.9857 314.622C92.9978 317.12 91.2198 318.882 88.8045 318.894C86.3728 318.905 84.5776 317.161 84.5654 314.663ZM86.137 314.655C86.1452 316.342 87.2262 317.512 88.7978 317.504C90.3528 317.496 91.4389 316.317 91.4306 314.629C91.4224 312.942 90.3249 311.773 88.7698 311.78C87.1983 311.788 86.1287 312.968 86.137 314.655ZM94.7445 322.289L94.6873 310.577L96.0935 310.57L96.2164 312.025C96.7569 310.914 97.8459 310.33 99.1362 310.324C101.452 310.312 102.9 312.042 102.912 314.524C102.924 316.988 101.577 318.848 99.1778 318.86C97.8875 318.866 96.8096 318.325 96.2753 317.335L96.2995 322.282L94.7445 322.289ZM96.2787 314.622C96.2867 316.276 97.252 317.463 98.8401 317.455C100.428 317.447 101.365 316.252 101.357 314.597C101.349 312.927 100.4 311.74 98.8123 311.748C97.2242 311.756 96.2704 312.935 96.2787 314.622ZM108.137 318.799C105.755 318.811 104.109 317.098 104.097 314.584C104.085 312.053 105.681 310.292 108.03 310.28C110.329 310.269 111.842 311.85 111.854 314.248L111.857 314.827L105.604 314.874C105.728 316.578 106.626 317.516 108.164 317.509C109.372 317.503 110.164 317.003 110.424 316.075L111.879 316.068C111.491 317.807 110.139 318.79 108.137 318.799ZM108.036 311.587C106.68 311.594 105.823 312.408 105.632 313.832L110.297 313.809C110.29 312.469 109.409 311.58 108.036 311.587ZM118.204 310.396L118.211 311.819L117.516 311.822C116.044 311.829 115.139 312.727 115.146 314.282L115.167 318.567L113.612 318.574L113.573 310.501L115.028 310.494L115.134 311.718C115.46 310.873 116.268 310.306 117.377 310.301C117.658 310.299 117.89 310.331 118.204 310.396ZM122.308 318.532L120.753 318.539L120.72 311.757L119.132 311.764L119.126 310.458L120.714 310.45L120.702 307.919L122.257 307.911L122.269 310.442L123.857 310.435L123.863 311.741L122.275 311.749L122.308 318.532ZM126.004 308.505C125.442 308.508 124.976 308.047 124.974 307.484C124.971 306.905 125.432 306.457 125.994 306.454C126.557 306.451 127.022 306.895 127.025 307.474C127.028 308.037 126.567 308.502 126.004 308.505ZM125.292 318.517L125.253 310.428L126.808 310.42L126.847 318.51L125.292 318.517ZM132.596 318.68C130.214 318.692 128.568 316.979 128.556 314.465C128.543 311.934 130.139 310.172 132.488 310.161C134.788 310.15 136.301 311.73 136.313 314.129L136.316 314.708L130.062 314.755C130.187 316.458 131.085 317.397 132.623 317.39C133.831 317.384 134.622 316.883 134.882 315.956L136.338 315.949C135.95 317.688 134.598 318.67 132.596 318.68ZM132.495 311.468C131.138 311.474 130.282 312.289 130.09 313.713L134.756 313.69C134.749 312.35 133.868 311.461 132.495 311.468ZM137.398 316.109L138.886 316.102C138.89 316.929 139.521 317.422 140.547 317.417C141.639 317.412 142.265 316.962 142.262 316.218C142.259 315.672 141.993 315.342 141.148 315.131L139.724 314.807C138.283 314.467 137.601 313.759 137.595 312.568C137.588 311.079 138.841 310.13 140.627 310.121C142.397 310.113 143.56 311.099 143.601 312.638L142.112 312.645C142.075 311.835 141.527 311.324 140.584 311.329C139.608 311.334 139.064 311.767 139.067 312.511C139.07 313.057 139.469 313.419 140.264 313.614L141.688 313.954C143.063 314.278 143.744 314.903 143.75 316.111C143.758 317.65 142.439 318.632 140.52 318.641C138.618 318.651 137.405 317.647 137.398 316.109Z" fill="#070C13"/>
<path opacity="0.7" d="M60.2689 235.093L57.7544 235.106L57.7473 233.65L61.8168 233.63L61.8752 245.59L60.3202 245.598L60.2689 235.093ZM64.034 239.608C64.0159 235.902 65.9226 233.378 68.9334 233.364C71.9276 233.349 73.8588 235.854 73.8769 239.56C73.8951 243.282 72.0708 245.756 68.9939 245.771C65.9004 245.786 64.0521 243.33 64.034 239.608ZM65.6386 239.6C65.653 242.545 66.8858 244.325 68.9868 244.315C71.0877 244.305 72.2866 242.512 72.2723 239.568C72.2577 236.59 71.0414 234.809 68.9405 234.819C66.8395 234.83 65.6241 236.622 65.6386 239.6ZM85.2633 241.208L82.2359 241.223L82.2568 245.491L80.6356 245.499L80.5772 233.538L85.2257 233.516C87.5748 233.504 89.0877 235.035 89.0989 237.335C89.1098 239.568 87.5958 241.197 85.2633 241.208ZM84.9516 234.973L82.2055 234.986L82.2288 239.767L84.9088 239.754C86.5134 239.746 87.4021 238.799 87.3949 237.327C87.3876 235.821 86.4736 234.965 84.9516 234.973ZM95.3023 237.272L95.3092 238.694L94.6144 238.698C93.1421 238.705 92.2366 239.603 92.2442 241.158L92.2651 245.442L90.7101 245.45L90.6707 237.377L92.1265 237.37L92.2317 238.593C92.5585 237.748 93.3663 237.182 94.4747 237.176C94.7559 237.175 94.9877 237.207 95.3023 237.272ZM95.9606 241.371C95.9484 238.873 97.7265 237.111 100.158 237.099C102.574 237.087 104.369 238.832 104.381 241.33C104.393 243.828 102.615 245.59 100.2 245.602C97.768 245.614 95.9728 243.869 95.9606 241.371ZM97.5322 241.363C97.5404 243.051 98.6214 244.22 100.193 244.212C101.748 244.205 102.834 243.025 102.826 241.338C102.818 239.65 101.72 238.481 100.165 238.489C98.5935 238.496 97.524 239.676 97.5322 241.363ZM106.14 248.997L106.083 237.285L107.489 237.278L107.612 238.733C108.152 237.622 109.241 237.038 110.531 237.032C112.847 237.021 114.295 238.75 114.307 241.232C114.319 243.697 112.972 245.556 110.573 245.568C109.283 245.574 108.205 245.034 107.671 244.044L107.695 248.99L106.14 248.997ZM107.674 241.33C107.682 242.985 108.647 244.171 110.235 244.163C111.823 244.156 112.761 242.96 112.753 241.306C112.744 239.635 111.796 238.448 110.208 238.456C108.619 238.464 107.666 239.643 107.674 241.33ZM119.533 245.508C117.151 245.519 115.504 243.807 115.492 241.292C115.48 238.761 117.076 237 119.425 236.988C121.724 236.977 123.238 238.558 123.249 240.957L123.252 241.536L116.999 241.583C117.123 243.286 118.021 244.225 119.559 244.217C120.767 244.211 121.559 243.711 121.819 242.783L123.275 242.776C122.886 244.515 121.534 245.498 119.533 245.508ZM119.431 238.295C118.075 238.302 117.219 239.117 117.027 240.54L121.692 240.518C121.686 239.178 120.804 238.289 119.431 238.295ZM129.599 237.104L129.606 238.527L128.912 238.53C127.439 238.537 126.534 239.435 126.541 240.99L126.562 245.275L125.007 245.282L124.968 237.21L126.424 237.202L126.529 238.426C126.856 237.581 127.663 237.014 128.772 237.009C129.053 237.008 129.285 237.04 129.599 237.104ZM133.704 245.24L132.149 245.248L132.116 238.465L130.527 238.473L130.521 237.166L132.109 237.158L132.097 234.627L133.652 234.62L133.664 237.151L135.252 237.143L135.259 238.45L133.671 238.457L133.704 245.24ZM137.399 235.213C136.837 235.216 136.372 234.755 136.369 234.193C136.366 233.614 136.827 233.165 137.389 233.162C137.952 233.159 138.417 233.604 138.42 234.183C138.423 234.745 137.962 235.211 137.399 235.213ZM136.687 245.225L136.648 237.136L138.203 237.128L138.242 245.218L136.687 245.225ZM143.991 245.388C141.609 245.4 139.963 243.688 139.951 241.173C139.939 238.642 141.535 236.881 143.884 236.869C146.183 236.858 147.696 238.439 147.708 240.837L147.711 241.416L141.458 241.463C141.582 243.167 142.48 244.105 144.018 244.098C145.226 244.092 146.017 243.592 146.278 242.664L147.733 242.657C147.345 244.396 145.993 245.379 143.991 245.388ZM143.89 238.176C142.534 238.183 141.677 238.997 141.486 240.421L146.151 240.398C146.144 239.058 145.263 238.169 143.89 238.176ZM148.793 242.817L150.282 242.81C150.286 243.637 150.917 244.13 151.942 244.125C153.034 244.12 153.661 243.67 153.657 242.926C153.654 242.38 153.388 242.05 152.543 241.839L151.119 241.516C149.678 241.175 148.996 240.467 148.991 239.276C148.983 237.787 150.236 236.838 152.023 236.829C153.793 236.821 154.956 237.808 154.996 239.346L153.507 239.353C153.47 238.543 152.922 238.033 151.979 238.037C151.003 238.042 150.459 238.475 150.463 239.219C150.465 239.765 150.864 240.127 151.659 240.322L153.084 240.662C154.458 240.986 155.139 241.612 155.145 242.819C155.153 244.358 153.834 245.34 151.915 245.35C150.013 245.359 148.8 244.356 148.793 242.817Z" fill="#070C13"/>
<path d="M562.506 427.553L561.658 253.617L530.66 296.179L520.968 303.262L506.386 304.701L496.848 301.816L473.671 286.098L460.489 283.817L444.925 291.711L415.938 331.135L405.235 338.614L385.783 338.709L358.546 321.448L343.349 321.522L331.833 328.614L287.539 387.07L272.982 393.591L263.768 390.546L248.557 382.115L234.03 392.581L215.215 398.579L190.109 402.717L153.517 411.763L144.42 423.489L152.078 429.555L562.506 427.553Z" fill="url(#paint0_linear_55_1261)"/>
<path d="M153.53 414.29L185.618 406.287C190.178 400.246 204.7 403.837 217.226 398.989C225.328 395.854 228.378 394.139 236.48 391.157L248.553 382.287C252.961 385.98 263.744 395.042 271.56 393.928C281.331 392.535 288.089 387.124 293.441 379.797C297.723 373.936 311.089 356.914 317.237 349.136C322.517 340.721 335.152 323.69 343.449 322.881C353.82 321.87 359.408 322.035 370.02 329.476C380.632 336.916 388.844 343.023 400.404 340.278C411.964 337.532 418.494 326.358 422.658 320.958C425.99 316.639 433.694 306.048 437.129 301.293C440.697 296.344 449.548 286.401 456.411 286.214C464.991 285.98 471.776 286.139 481.789 293.582C491.803 301.026 498.219 307.333 510.187 306.314C522.154 305.295 528.703 297.774 531.674 293.339C534.052 289.792 550.352 265.903 558.606 253.632" stroke="#2F9393" stroke-width="4.32144" stroke-linecap="round"/>
<g filter="url(#filter2_d_55_1261)">
<circle cx="570.359" cy="243.87" r="10.8385" transform="rotate(-0.279445 570.359 243.87)" fill="#95F0F0"/>
<circle cx="570.359" cy="243.87" r="9.13672" transform="rotate(-0.279445 570.359 243.87)" stroke="white" stroke-width="3.40359"/>
</g>
<g filter="url(#filter3_d_55_1261)">
<g filter="url(#filter4_d_55_1261)">
<rect x="484.744" y="175.547" width="165.43" height="51.0074" rx="2.75716" transform="rotate(-0.279445 484.744 175.547)" fill="white"/>
</g>
<path d="M504.944 194.109C502.014 194.124 500.106 192.097 500.09 188.947C500.075 185.825 502.032 183.738 504.976 183.724C507.355 183.712 509.137 185.093 509.491 187.251L507.634 187.26C507.284 186.092 506.277 185.409 504.943 185.416C503.086 185.425 501.923 186.778 501.933 188.924C501.944 191.056 503.133 192.426 504.977 192.417C506.339 192.411 507.38 191.69 507.705 190.574L509.535 190.566C509.16 192.686 507.323 194.098 504.944 194.109ZM519.73 188.838C519.745 191.891 517.747 194.047 514.859 194.061C511.984 194.075 509.992 191.953 509.978 188.885C509.963 185.831 511.947 183.676 514.822 183.662C517.697 183.648 519.715 185.77 519.73 188.838ZM517.873 188.847C517.863 186.701 516.673 185.345 514.83 185.354C512.987 185.363 511.81 186.73 511.821 188.876C511.831 191.022 513.021 192.378 514.864 192.369C516.707 192.36 517.884 190.965 517.873 188.847ZM522.549 193.859L520.843 193.867L520.794 183.811L522.5 183.803L525.785 191.793L528.993 183.771L530.726 183.763L530.775 193.818L529.069 193.827L529.054 190.732C529.044 188.71 529.041 188.118 529.134 187.402L526.607 193.839L524.984 193.847L522.408 187.449C522.507 188.054 522.525 189.003 522.531 190.255L522.549 193.859ZM536.409 190.324L534.194 190.335L534.211 193.802L532.45 193.81L532.401 183.755L536.377 183.735C538.399 183.726 539.712 185.04 539.721 187.007C539.731 188.946 538.417 190.315 536.409 190.324ZM536.04 185.305L534.17 185.314L534.186 188.767L536.03 188.758C537.24 188.752 537.884 188.102 537.878 187.002C537.873 185.902 537.21 185.3 536.04 185.305ZM549.836 188.691C549.851 191.744 547.853 193.9 544.964 193.914C542.089 193.928 540.098 191.806 540.083 188.738C540.068 185.685 542.052 183.529 544.927 183.515C547.802 183.501 549.821 185.623 549.836 188.691ZM547.979 188.7C547.968 186.554 546.779 185.198 544.935 185.207C543.092 185.216 541.916 186.583 541.926 188.729C541.937 190.875 543.126 192.231 544.97 192.222C546.813 192.213 547.989 190.818 547.979 188.7ZM550.862 190.048L550.831 183.665L552.592 183.656L552.622 189.929C552.629 191.373 553.417 192.167 554.848 192.16C556.279 192.153 557.072 191.338 557.065 189.907L557.035 183.635L558.796 183.626L558.827 190.009C558.838 192.361 557.305 193.854 554.856 193.866C552.422 193.878 550.874 192.414 550.862 190.048ZM562.193 193.665L560.46 193.674L560.411 183.618L562.158 183.61L566.911 190.712L566.876 183.587L568.61 183.578L568.659 193.634L566.925 193.642L562.159 186.54L562.193 193.665ZM573.952 193.608L570.334 193.625L570.285 183.57L573.807 183.553C576.778 183.538 578.837 185.578 578.852 188.577C578.866 191.534 576.868 193.594 573.952 193.608ZM573.649 185.177L572.054 185.185L572.087 191.994L573.779 191.985C575.787 191.976 577.005 190.677 576.995 188.586C576.985 186.454 575.727 185.167 573.649 185.177ZM588.372 193.537L585.324 183.497L587.154 183.488L588.775 188.79C588.929 189.339 589.083 189.902 589.239 190.782C589.4 189.887 589.548 189.364 589.724 188.785L591.28 183.468L593.22 183.458L594.8 188.76C594.968 189.323 595.122 189.9 595.291 190.753C595.479 189.816 595.614 189.279 595.763 188.769L597.36 183.438L599.149 183.429L596.144 193.5L594.438 193.508L592.257 186.2L590.105 193.529L588.372 193.537ZM606.215 193.45L599.97 193.481L599.921 183.426L606.166 183.395L606.174 185.018L601.69 185.04L601.702 187.626L605.719 187.607L605.727 189.161L601.71 189.181L601.723 191.849L606.207 191.827L606.215 193.45ZM608.44 193.44L606.611 193.449L610.193 183.375L611.995 183.367L615.676 193.404L613.819 193.413L612.996 191.093L609.241 191.111L608.44 193.44ZM610.882 186.371L609.756 189.623L612.48 189.609L611.309 186.369C611.225 186.108 611.127 185.806 611.098 185.599C611.058 185.792 610.977 186.095 610.882 186.371ZM618.098 183.337L618.139 191.769L622.349 191.749L622.357 193.372L616.387 193.401L616.338 183.345L618.098 183.337ZM621.255 184.945L621.248 183.321L628.896 183.284L628.904 184.907L625.96 184.922L626.001 193.354L624.24 193.363L624.199 184.93L621.255 184.945ZM631.501 193.327L629.74 193.336L629.691 183.28L631.452 183.272L631.472 187.426L635.929 187.404L635.909 183.25L637.67 183.241L637.719 193.297L635.958 193.305L635.937 189.041L631.48 189.063L631.501 193.327Z" fill="#2F9393"/>
<path d="M509.396 208.779L504.732 208.801L504.757 213.928L502.563 213.938L502.502 201.405L510.251 201.368L510.261 203.391L504.706 203.418L504.723 206.83L509.386 206.807L509.396 208.779ZM523.01 207.563C523.028 211.37 520.538 214.056 516.938 214.074C513.355 214.091 510.873 211.446 510.854 207.623C510.835 203.817 513.308 201.13 516.892 201.112C520.475 201.095 522.991 203.74 523.01 207.563ZM520.695 207.575C520.682 204.9 519.199 203.21 516.902 203.221C514.605 203.232 513.138 204.937 513.151 207.612C513.165 210.286 514.647 211.976 516.945 211.965C519.242 211.954 520.708 210.215 520.695 207.575ZM526.592 213.821L524.397 213.832L524.336 201.299L529.119 201.276C531.965 201.262 533.635 202.694 533.648 205.163C533.656 206.843 532.873 208.047 531.401 208.654L533.81 213.786L531.409 213.798L529.261 209.127L526.569 209.141L526.592 213.821ZM526.54 203.243L526.559 207.203L529.148 207.191C530.537 207.184 531.356 206.443 531.35 205.174C531.344 203.922 530.518 203.223 529.129 203.23L526.54 203.243ZM541.327 213.749L539.132 213.76L539.071 201.227L543.855 201.204C546.701 201.19 548.371 202.622 548.383 205.091C548.391 206.771 547.608 207.975 546.137 208.582L548.545 213.714L546.144 213.726L543.996 209.056L541.304 209.069L541.327 213.749ZM541.275 203.171L541.295 207.131L543.883 207.119C545.272 207.112 546.091 206.371 546.085 205.102C546.079 203.85 545.253 203.152 543.864 203.158L541.275 203.171ZM557.716 213.669L549.932 213.707L549.871 201.174L557.655 201.136L557.665 203.16L552.075 203.187L552.091 206.41L557.097 206.386L557.107 208.323L552.101 208.347L552.117 211.674L557.706 211.646L557.716 213.669ZM558.261 203.157L558.251 201.134L567.784 201.087L567.793 203.11L564.124 203.128L564.176 213.638L561.981 213.649L561.93 203.139L558.261 203.157ZM570.97 201.072L571.031 213.604L568.836 213.615L568.775 201.082L570.97 201.072ZM575.318 213.584L573.123 213.594L573.062 201.061L577.846 201.038C580.692 201.024 582.362 202.456 582.374 204.925C582.382 206.605 581.599 207.809 580.128 208.416L582.536 213.548L580.135 213.56L577.987 208.89L575.295 208.903L575.318 213.584ZM575.266 203.005L575.286 206.966L577.874 206.953C579.263 206.946 580.082 206.205 580.076 204.936C580.07 203.685 579.244 202.986 577.855 202.993L575.266 203.005ZM591.707 213.504L583.923 213.542L583.862 201.009L591.646 200.971L591.656 202.994L586.066 203.021L586.082 206.244L591.088 206.22L591.098 208.157L586.092 208.182L586.108 211.508L591.697 211.48L591.707 213.504ZM595.526 213.485L593.4 213.495L593.339 200.962L595.465 200.952L599.56 210.911L603.558 200.913L605.718 200.902L605.779 213.435L603.653 213.445L603.634 209.588C603.622 207.067 603.618 206.33 603.734 205.438L600.584 213.46L598.561 213.47L595.35 205.496C595.474 206.25 595.497 207.433 595.504 208.993L595.526 213.485ZM615.651 213.387L607.867 213.425L607.806 200.892L615.59 200.854L615.6 202.877L610.01 202.904L610.026 206.127L615.032 206.103L615.042 208.04L610.035 208.065L610.052 211.391L615.641 211.364L615.651 213.387ZM619.504 213.368L617.344 213.379L617.283 200.846L619.46 200.835L625.384 209.687L625.341 200.806L627.501 200.796L627.563 213.329L625.402 213.339L619.461 204.487L619.504 213.368ZM628.502 202.814L628.493 200.791L638.025 200.744L638.035 202.768L634.366 202.785L634.417 213.295L632.223 213.306L632.171 202.796L628.502 202.814Z" fill="#232019"/>
<path d="M567.74 233.042L561.725 223.766L573.663 223.708L567.74 233.042Z" fill="white"/>
</g>
<path opacity="0.7" d="M161.474 463.333L153.401 463.389L153.395 462.148L157.233 458.804C159.161 457.124 159.703 456.311 159.696 455.037C159.689 453.531 158.824 452.642 157.385 452.649C155.913 452.656 154.959 453.736 154.934 455.44L153.313 455.448C153.35 452.884 154.963 451.205 157.395 451.193C159.793 451.182 161.339 452.63 161.35 454.929C161.358 456.633 160.521 457.845 158.412 459.692L155.941 461.854L161.466 461.827L161.474 463.333ZM141.982 475.391L138.576 469.494L140.092 469.487L142.331 473.46C142.47 473.693 142.554 473.886 142.665 474.12C142.788 473.871 142.816 473.788 142.993 473.457L145.179 469.462L146.654 469.455L143.333 475.385L143.353 479.438L142.002 479.444L141.982 475.391ZM154.085 479.386L148.005 479.415L147.956 469.448L154.036 469.419L154.042 470.659L149.313 470.682L149.329 473.798L153.588 473.777L153.594 474.976L149.335 474.997L149.35 478.154L154.078 478.131L154.085 479.386ZM156.456 479.374L155.05 479.381L158.64 469.396L160.143 469.389L163.845 479.338L162.425 479.345L161.517 476.868L157.326 476.888L156.456 479.374ZM159.23 471.544L157.734 475.714L161.111 475.698L159.561 471.542C159.491 471.35 159.421 471.115 159.393 470.964C159.366 471.102 159.298 471.337 159.23 471.544ZM166.521 479.325L165.17 479.331L165.121 469.364L168.885 469.346C171.021 469.336 172.295 470.46 172.304 472.321C172.311 473.7 171.627 474.695 170.388 475.101L172.435 479.296L170.932 479.303L169.052 475.37L166.502 475.382L166.521 479.325ZM166.478 470.571L166.496 474.183L168.922 474.171C170.176 474.165 170.89 473.486 170.884 472.342C170.879 471.184 170.131 470.553 168.891 470.559L166.478 470.571ZM173.575 472.011C173.567 470.302 174.94 469.137 176.994 469.127C178.896 469.118 180.128 470.174 180.247 471.896L178.882 471.903C178.808 470.911 178.103 470.335 176.986 470.341C175.731 470.347 174.921 470.985 174.926 471.964C174.93 472.763 175.387 473.243 176.326 473.459L177.968 473.837C179.597 474.202 180.428 475.08 180.435 476.486C180.444 478.278 179.057 479.429 176.934 479.44C174.907 479.449 173.551 478.394 173.46 476.685L174.839 476.679C174.871 477.63 175.673 478.232 176.928 478.226C178.251 478.22 179.089 477.595 179.084 476.603C179.081 475.817 178.651 475.323 177.698 475.107L176.056 474.743C174.428 474.378 173.582 473.445 173.575 472.011Z" fill="#070C13"/>
<path opacity="0.7" d="M270.775 455.13L269.584 455.136L269.579 454.06L272.954 450.785L267.578 450.811L267.571 449.372L274.999 449.336L275.005 450.642L271.745 453.785C273.781 454.023 275.326 455.389 275.337 457.539C275.348 459.955 273.536 461.502 271.104 461.514C268.755 461.525 267.061 460.094 267.049 457.613L268.653 457.605C268.661 459.16 269.625 460.065 271.13 460.058C272.685 460.05 273.69 459.053 273.682 457.514C273.675 456.075 272.678 455.12 270.775 455.13ZM252.305 472.543L248.218 465.466L250.038 465.458L252.724 470.225C252.891 470.506 252.991 470.737 253.125 471.018C253.273 470.719 253.305 470.62 253.518 470.222L256.142 465.428L257.912 465.419L253.927 472.536L253.95 477.399L252.329 477.407L252.305 472.543ZM266.828 477.336L259.533 477.372L259.474 465.412L266.77 465.376L266.777 466.865L261.103 466.892L261.121 470.631L266.233 470.606L266.24 472.045L261.128 472.07L261.147 475.859L266.821 475.831L266.828 477.336ZM269.674 477.322L267.986 477.331L272.295 465.349L274.098 465.34L278.54 477.279L276.837 477.288L275.747 474.315L270.718 474.34L269.674 477.322ZM273.002 467.926L271.207 472.931L275.26 472.911L273.4 467.924C273.316 467.693 273.232 467.412 273.198 467.23C273.165 467.396 273.084 467.678 273.002 467.926ZM281.752 477.264L280.13 477.271L280.072 465.311L284.588 465.289C287.152 465.277 288.681 466.626 288.692 468.859C288.7 470.513 287.878 471.708 286.392 472.195L288.848 477.229L287.045 477.238L284.789 472.517L281.728 472.532L281.752 477.264ZM281.7 466.759L281.721 471.093L284.633 471.079C286.138 471.072 286.995 470.257 286.988 468.884C286.981 467.494 286.084 466.738 284.595 466.745L281.7 466.759ZM290.217 468.487C290.207 466.436 291.854 465.039 294.319 465.027C296.602 465.015 298.081 466.282 298.223 468.349L296.585 468.357C296.497 467.166 295.65 466.476 294.31 466.482C292.804 466.49 291.832 467.255 291.838 468.43C291.842 469.389 292.391 469.966 293.517 470.225L295.488 470.679C297.442 471.116 298.44 472.17 298.448 473.857C298.459 476.008 296.795 477.389 294.247 477.401C291.815 477.413 290.188 476.147 290.079 474.096L291.733 474.088C291.772 475.23 292.735 475.953 294.24 475.945C295.828 475.938 296.834 475.188 296.828 473.997C296.823 473.054 296.308 472.461 295.165 472.202L293.194 471.765C291.24 471.328 290.225 470.208 290.217 468.487Z" fill="#070C13"/>
<path opacity="0.7" d="M379.891 459.868L378.469 459.875L378.481 462.291L376.926 462.298L376.914 459.883L370.727 459.913L370.72 458.474L376.321 450.34L378.422 450.33L378.462 458.436L379.884 458.429L379.891 459.868ZM372.473 458.465L376.907 458.444L376.876 452.058L372.473 458.465ZM357.758 474.339L354.351 468.441L355.868 468.434L358.107 472.407C358.246 472.641 358.329 472.833 358.441 473.067C358.564 472.818 358.591 472.735 358.768 472.404L360.955 468.409L362.43 468.402L359.109 474.332L359.128 478.385L357.777 478.392L357.758 474.339ZM369.86 478.333L363.78 478.362L363.732 468.395L369.811 468.366L369.817 469.606L365.089 469.63L365.104 472.745L369.364 472.724L369.369 473.924L365.11 473.944L365.125 477.101L369.854 477.078L369.86 478.333ZM372.231 478.321L370.825 478.328L374.416 468.343L375.918 468.336L379.62 478.285L378.2 478.292L377.292 475.815L373.101 475.835L372.231 478.321ZM375.005 470.491L373.509 474.662L376.886 474.645L375.336 470.489C375.266 470.297 375.196 470.063 375.168 469.911C375.141 470.049 375.073 470.284 375.005 470.491ZM382.296 478.272L380.945 478.279L380.896 468.312L384.66 468.293C386.797 468.283 388.07 469.407 388.079 471.268C388.086 472.647 387.402 473.643 386.163 474.049L388.21 478.243L386.707 478.251L384.827 474.317L382.277 474.329L382.296 478.272ZM382.253 469.518L382.271 473.13L384.697 473.118C385.952 473.112 386.665 472.433 386.66 471.289C386.654 470.131 385.906 469.5 384.666 469.506L382.253 469.518ZM389.35 470.959C389.342 469.249 390.715 468.085 392.769 468.075C394.671 468.065 395.903 469.121 396.022 470.843L394.657 470.85C394.584 469.858 393.878 469.282 392.761 469.288C391.507 469.294 390.696 469.932 390.701 470.911C390.705 471.71 391.162 472.191 392.101 472.407L393.743 472.785C395.372 473.149 396.203 474.027 396.21 475.433C396.219 477.225 394.832 478.376 392.709 478.387C390.682 478.397 389.326 477.342 389.235 475.633L390.614 475.626C390.646 476.577 391.449 477.18 392.703 477.174C394.026 477.167 394.864 476.543 394.86 475.55C394.856 474.764 394.426 474.27 393.474 474.054L391.831 473.69C390.203 473.326 389.357 472.392 389.35 470.959Z" fill="#070C13"/>
</g>
<g opacity="0.7">
<path d="M447.466 460.583C445.018 460.595 443.422 459.048 443.411 456.666L445.016 456.658C445.023 458.197 445.97 459.135 447.492 459.127C449.113 459.119 450.15 458.039 450.143 456.417C450.136 454.879 449.154 453.742 447.483 453.751C446.474 453.756 445.55 454.24 445.007 454.921L443.633 454.581L445.059 448.436L451.048 448.406L451.055 449.895L446.241 449.919L445.462 453.099C446.088 452.616 446.881 452.364 447.775 452.36C450.206 452.347 451.786 454.043 451.797 456.343C451.808 458.824 450.047 460.57 447.466 460.583ZM429.843 472.42L426.437 466.523L427.954 466.516L430.192 470.489C430.331 470.722 430.415 470.915 430.526 471.149C430.649 470.9 430.676 470.817 430.854 470.485L433.041 466.49L434.516 466.483L431.194 472.414L431.213 476.467L429.862 476.473L429.843 472.42ZM441.944 476.413L435.865 476.443L435.818 466.476L441.897 466.446L441.903 467.686L437.174 467.71L437.189 470.826L441.449 470.804L441.455 472.004L437.195 472.025L437.21 475.182L441.938 475.158L441.944 476.413ZM444.315 476.401L442.909 476.408L446.502 466.422L448.004 466.415L451.704 476.363L450.285 476.371L449.377 473.894L445.186 473.915L444.315 476.401ZM447.091 468.57L445.594 472.741L448.971 472.724L447.422 468.568C447.352 468.376 447.282 468.142 447.253 467.99C447.226 468.128 447.159 468.363 447.091 468.57ZM454.38 476.35L453.029 476.357L452.982 466.39L456.746 466.371C458.883 466.36 460.156 467.484 460.165 469.345C460.171 470.724 459.487 471.72 458.248 472.126L460.294 476.32L458.792 476.328L456.912 472.394L454.362 472.407L454.38 476.35ZM454.339 467.596L454.356 471.208L456.782 471.196C458.037 471.189 458.75 470.51 458.745 469.366C458.74 468.208 457.992 467.578 456.751 467.584L454.339 467.596ZM461.436 469.035C461.428 467.326 462.801 466.161 464.855 466.151C466.757 466.141 467.989 467.197 468.108 468.919L466.743 468.926C466.669 467.934 465.964 467.358 464.847 467.364C463.592 467.37 462.782 468.009 462.787 468.987C462.79 469.787 463.248 470.267 464.186 470.483L465.828 470.861C467.457 471.225 468.288 472.103 468.295 473.509C468.303 475.301 466.916 476.452 464.793 476.463C462.767 476.473 461.411 475.419 461.32 473.71L462.699 473.703C462.731 474.654 463.533 475.256 464.788 475.25C466.111 475.243 466.949 474.619 466.944 473.626C466.941 472.84 466.511 472.346 465.559 472.13L463.916 471.766C462.288 471.402 461.443 470.469 461.436 469.035Z" fill="#081424"/>
</g>
<g opacity="0.7">
<path d="M541.987 449.403L539.473 449.416L539.466 447.96L543.536 447.94L543.592 459.9L542.037 459.908L541.987 449.403ZM545.752 453.917C545.734 450.212 547.641 447.687 550.652 447.672C553.646 447.657 555.577 450.162 555.595 453.868C555.612 457.59 553.788 460.064 550.711 460.079C547.617 460.095 545.769 457.639 545.752 453.917ZM547.356 453.909C547.37 456.854 548.603 458.634 550.704 458.624C552.805 458.613 554.004 456.82 553.99 453.876C553.976 450.898 552.76 449.117 550.659 449.128C548.558 449.139 547.342 450.931 547.356 453.909ZM530.013 471.916L526.607 466.019L528.124 466.011L530.362 469.984C530.501 470.217 530.585 470.41 530.696 470.644C530.819 470.395 530.846 470.312 531.024 469.98L533.211 465.985L534.686 465.978L531.364 471.909L531.383 475.962L530.032 475.969L530.013 471.916ZM542.114 475.908L536.035 475.938L535.988 465.971L542.067 465.941L542.073 467.181L537.344 467.205L537.359 470.321L541.619 470.299L541.625 471.499L537.365 471.52L537.38 474.677L542.108 474.653L542.114 475.908ZM544.485 475.896L543.079 475.903L546.672 465.918L548.174 465.91L551.874 475.859L550.455 475.866L549.547 473.389L545.356 473.41L544.485 475.896ZM547.261 468.065L545.764 472.236L549.141 472.219L547.592 468.064C547.522 467.871 547.452 467.637 547.423 467.485C547.396 467.623 547.329 467.858 547.261 468.065ZM554.55 475.845L553.199 475.852L553.152 465.885L556.916 465.866C559.053 465.855 560.326 466.979 560.335 468.84C560.341 470.219 559.657 471.215 558.418 471.621L560.464 475.815L558.962 475.823L557.082 471.89L554.532 471.902L554.55 475.845ZM554.509 467.091L554.526 470.703L556.952 470.691C558.207 470.685 558.921 470.005 558.915 468.861C558.91 467.703 558.162 467.073 556.922 467.079L554.509 467.091ZM561.606 468.531C561.598 466.821 562.971 465.656 565.025 465.646C566.927 465.636 568.159 466.692 568.278 468.414L566.913 468.421C566.839 467.429 566.134 466.853 565.017 466.859C563.762 466.865 562.952 467.504 562.957 468.482C562.96 469.282 563.418 469.762 564.356 469.978L565.998 470.356C567.627 470.72 568.458 471.598 568.465 473.004C568.473 474.796 567.086 475.947 564.963 475.958C562.937 475.968 561.581 474.914 561.49 473.205L562.869 473.198C562.901 474.149 563.703 474.751 564.958 474.745C566.281 474.738 567.119 474.114 567.114 473.121C567.111 472.335 566.681 471.841 565.729 471.625L564.086 471.262C562.458 470.897 561.613 469.964 561.606 468.531Z" fill="#081424"/>
</g>
<path d="M87.0826 190.466L87.4454 190.128C87.5146 190.063 87.6528 190.102 87.6591 190.187L87.6891 191.262L87.0814 190.466L87.0826 190.466ZM85.6995 191.764L86.5636 190.956C86.6575 190.87 86.8275 190.884 86.8975 190.984L87.3028 191.62C87.3349 191.67 87.2904 191.726 87.222 191.726L85.7006 191.759L85.7006 191.764L85.6995 191.764ZM85.2977 188.235L85.8705 186.926L85.62 188.535L85.4627 188.445L85.3167 188.26L85.2977 188.235ZM84.95 187.804L83.9188 186.523L86.078 185.699L85.9919 186.186L85.2954 187.767C85.2394 187.887 85.0378 187.908 84.95 187.798M81.5893 183.369L81.5893 183.359C81.5834 183.359 81.5704 183.354 81.5704 183.354L79.3189 182.185L78.7832 181.886L83.9637 180.248L83.6084 185.991L81.5893 183.369ZM76.9756 182.729L76.8365 182.504L78.3251 182.034L79.3221 182.587L77.6195 182.957C77.3615 183.014 77.0968 182.914 76.9768 182.729M77.1657 186.882C77.1658 186.912 77.166 186.938 77.1413 186.962L76.2225 188.173L76.2226 188.183C76.2167 188.183 74.9795 186.034 74.9795 186.034L74.9228 183.346C74.9221 183.21 75.0159 183.089 75.1725 183.039C75.5493 182.912 76.2147 182.697 76.2147 182.697L76.7035 183.529C76.7606 183.629 76.7989 183.739 76.8124 183.849L77.161 186.887L77.1669 186.882L77.1657 186.882ZM76.8436 189.275L76.5581 188.775L77.0457 188.144L76.8436 189.275ZM76.746 189.834L74.7706 191.079L76.4327 188.946L76.7943 189.577L76.752 189.838L76.746 189.834ZM75.8041 191.37L74.5279 191.387L74.6909 191.175L76.3661 190.292C76.4414 190.252 76.5361 190.311 76.5046 190.382L76.1252 191.188C76.075 191.298 75.9432 191.369 75.7993 191.37M72.9489 182.487L71.369 179.727L73.1201 177.704L74.4138 179.828L74.4592 182.621C74.46 182.772 74.2718 182.878 74.0958 182.824L72.9429 182.482L72.9489 182.487ZM73.7102 183.805L73.069 182.688L74.4486 183.093L74.0746 183.799C74.0056 183.924 73.7862 183.925 73.7101 183.8M74.4275 185.057L74.2943 184.827L74.4433 184.43L74.4275 185.053L74.4275 185.057ZM72.4804 185.594L68.0974 183.165C68.0974 183.165 69.5116 181.701 69.555 181.656L72.7926 182.614L73.7764 184.332L73.1909 185.43C73.0728 185.657 72.7205 185.734 72.4686 185.595M71.9053 190.274L72.0218 192.172L71.1819 190.212L72.4237 188.237L71.9053 190.275L71.9053 190.274ZM69.5543 193.119L70.7316 190.742L71.5971 192.872C71.6353 192.963 71.5544 193.064 71.4341 193.069L69.642 193.209C69.5795 193.209 69.5285 193.164 69.5531 193.114M69.3997 187.312L70.47 190.074C70.5083 190.175 70.5029 190.28 70.4526 190.376L69.2444 192.697L69.4009 187.312L69.3997 187.312ZM69.7115 186.653L72.8863 186.356L70.8586 189.696L69.5122 186.919C69.455 186.799 69.5547 186.668 69.7126 186.652M69.2826 186.499L66.5517 184.975L67.5782 183.84C67.7659 183.628 68.1372 183.581 68.3951 183.73L72.2167 185.927L69.2826 186.499ZM66.4148 182.544L67.3807 183.248L66.4801 184.323L66.4148 182.544ZM66.0593 181.954L63.8394 180.734C63.8819 180.488 63.9125 180.241 63.9491 179.995L66.4744 180.741C66.3384 181.149 66.1953 181.552 66.0593 181.958M65.8358 184.979L65.4664 185.418L65.9612 183.606L65.8358 184.983L65.8358 184.979ZM65.8209 191.122L64.3045 189.753C64.1777 189.638 64.1274 189.472 64.1833 189.327L65.0955 186.766L65.8277 185.974C65.828 186.044 65.8165 190.208 65.8209 191.128M64.982 191.789L64.2562 189.999L65.4575 191.335C65.5464 191.429 65.5023 191.571 65.3705 191.626L64.9808 191.789L64.982 191.789ZM65.2888 192.787L65.0601 192.316L65.4366 192.119L65.2888 192.787ZM63.107 193.065L64.6255 192.454L64.7277 192.841C64.7599 192.911 64.6965 192.987 64.6022 192.988L63.0999 193.066L63.1058 193.065L63.107 193.065ZM62.959 185.937L60.5753 179.418C60.5431 179.338 60.6631 179.272 60.7447 179.327L63.3309 180.932L62.959 185.941L62.959 185.937ZM60.5683 176.771L62.9595 177.091L60.4319 178.55L60.5683 176.771ZM59.8513 176.559L59.4488 176.505L60.2927 175.411L60.1782 176.361C60.16 176.492 60.0154 176.583 59.8525 176.559M59.9535 178.165L59.4375 176.847C59.3993 176.746 59.4991 176.651 59.6313 176.665L60.1352 176.718L59.9594 178.166L59.9535 178.166L59.9535 178.165ZM60.635 178.84L63.5718 177.359L63.4639 179.675L60.6421 178.84L60.6362 178.84L60.635 178.84ZM63.4518 179.846L63.4227 180.408L61.0705 179.139L63.4518 179.84L63.4518 179.845L63.4518 179.846ZM63.4272 187.627L63.3376 187.382L63.7791 181.186L65.8536 182.336L64.585 186.572L63.6526 187.656C63.5905 187.727 63.4583 187.707 63.426 187.627M63.6116 188.19L64.0687 187.846L63.8466 188.721L63.6116 188.19ZM63.0401 190.96L63.2127 188.864L63.7067 189.555L63.0401 190.96ZM63.9348 189.886L64.4923 191.978L63.193 192.557L63.9407 189.886L63.9348 189.886ZM60.9094 174.403L64.335 170.121L63.6934 176.67L63.1477 176.984L61.1271 176.723C60.8191 176.684 60.5975 176.464 60.6151 176.213L60.7218 174.877C60.734 174.711 60.8016 174.545 60.9141 174.404M63.4809 167.674L64.239 169.549L60.809 174.132L60.774 173.484C60.76 173.283 60.8039 173.081 60.8973 172.891L63.482 167.669L63.4821 167.673L63.4809 167.674ZM61.2714 170.021C61.6266 169.341 62.9656 166.733 62.9656 166.733L63.1312 167.083L61.0727 171.86L61.1786 170.352C61.184 170.237 61.2212 170.126 61.2714 170.02M63.6053 164.891L64.0612 165.502L63.5764 165.504C63.4632 165.505 63.3814 165.415 63.4187 165.324L63.6053 164.886L63.6053 164.891ZM63.5131 166.539L63.354 166.083L63.8689 165.975L63.5131 166.539ZM64.0214 167.747L63.6726 167.081C63.6726 167.081 63.8098 166.91 63.8659 166.819L63.866 166.839L64.0155 167.747L64.0214 167.747ZM65.4114 165.198L65.8041 164.463L65.8076 165.176L65.0352 165.441L64.4634 165.504L64.1647 164.947L65.4173 165.193L65.4114 165.198L65.4114 165.198ZM65.4576 164.264L65.1772 164.823L64.365 164.676C64.3143 164.666 64.3081 164.611 64.3587 164.596L65.4576 164.264ZM66.3946 162.913L66.0027 163.815L65.0281 163.99L66.3934 162.913L66.3946 162.913ZM67.1039 165.195L66.5424 166.137L65.6444 166.533L65.1637 165.928C65.1008 165.848 65.144 165.742 65.257 165.712L67.1039 165.195ZM68.5399 165.545L66.8762 166.146L67.5445 165.078L68.547 165.545L68.5411 165.545L68.5399 165.545ZM69.6125 165.153L68.7648 165.458L67.832 165.026L69.6125 165.153ZM70.8337 165.242L72.2581 167.089L68.9799 165.563L70.0219 165.185L70.8337 165.242ZM72.3687 165.35L72.5094 167.113L71.0791 165.261L72.3687 165.35ZM74.3364 172.921L70.5974 173.633L68.4921 168.795L65.9014 167.728L65.8955 167.728L66.7382 166.373L68.7603 165.756L72.5037 167.385L72.588 169.194L74.3423 172.917L74.3365 172.922L74.3364 172.921ZM73.4207 165.571L72.8933 166.991L72.848 165.434L73.269 165.416C73.3692 165.416 73.4522 165.491 73.4207 165.571ZM73.7709 166.519L73.1369 166.879L73.5662 165.908L73.7709 166.514L73.7709 166.519ZM74.3387 165.647L74.1708 166.035L73.8856 165.614C73.8535 165.564 73.917 165.508 73.9796 165.528L74.3446 165.642L74.3387 165.647ZM74.6789 165.756L75.3972 165.983L74.4119 166.391L74.6789 165.756ZM75.3692 164.11L75.4467 165.737L74.9742 165.589C74.8608 165.555 74.8037 165.454 74.841 165.364L75.3692 164.11ZM75.6871 172.463L74.8396 172.824L73.7104 170.79L75.6871 172.468L75.6871 172.463L75.6871 172.463ZM77.7728 170.859L75.8495 172.4L74.1697 170.886L77.7728 170.858L77.7728 170.859ZM79.8143 171.548L76.2144 172.249L77.9697 171.075C78.1519 170.954 78.4089 170.933 78.617 171.022L79.8202 171.544L79.8143 171.548ZM78.8501 175.049L75.9952 172.511L80.7388 171.508L78.8442 175.049L78.8501 175.049ZM76.348 180.527L79.1168 175.571L83.8732 179.838C83.9432 179.902 83.9813 179.983 83.9746 180.068L78.8377 181.691C78.681 181.741 78.504 181.722 78.3657 181.648L76.3539 180.522L76.348 180.527ZM76.0623 181.196L76.2364 180.864L78.1287 181.919L76.7473 182.358L76.0623 181.196ZM75.7198 181.825L76.1385 182.547L75.0774 182.884L75.7268 181.825L75.7209 181.825L75.7198 181.825ZM75.3337 181.271L75.0291 181.925L74.8393 180.5L75.3337 181.271ZM70.6307 173.919L73.9867 173.285L72.8147 174.094L70.6378 173.919L70.6319 173.919L70.6307 173.919ZM71.0776 179.216L70.3222 177.904L68.1316 177.593L68.1315 177.568C68.1256 177.568 67.3084 175.2 67.3084 175.2L68.8003 174.204L72.8086 174.531L75.7866 172.548L78.7366 175.231L75.8432 180.289L75.3074 179.986C75.188 179.921 75.0932 179.831 75.029 179.726L73.2101 176.801L71.0704 179.203L71.0764 179.218L71.0776 179.216ZM71.2318 179.874L72.6843 182.408L69.6864 181.523L71.2318 179.878L71.2318 179.874ZM67.0028 180.728L68.0699 177.77L69.8073 178.002C70.0398 178.031 70.2421 178.156 70.3432 178.331L70.7679 179.072C70.8761 179.258 70.8453 179.474 70.701 179.635L69.162 181.366L67.0016 180.728L67.0028 180.728ZM66.9469 180.879L69.0376 181.497L68.0299 182.627C67.8985 182.774 67.6475 182.81 67.4583 182.705L66.5062 182.167L66.9398 180.879L66.9457 180.879L66.9469 180.879ZM67.5294 177.697C67.5294 177.697 66.636 180.258 66.5244 180.585L63.9671 179.829L64.2625 177.265L67.5223 177.697L67.5282 177.697L67.5294 177.697ZM66.9475 175.68L67.5766 176.983C67.6529 177.143 67.6667 177.318 67.6038 177.48L67.5794 177.551L64.2818 177.125L64.2998 176.933L66.6393 175.601C66.7463 175.54 66.8974 175.575 66.9416 175.675M64.7626 170.014L66.5219 174.752C66.5661 174.877 66.5102 175.008 66.3785 175.089L64.3026 176.299L64.7626 170.013L64.7626 170.014ZM65.4326 168.102L64.9329 168.898C64.8767 168.989 64.7068 168.965 64.7004 168.865L64.4048 166.309L65.4326 168.103L65.4326 168.102ZM64.9358 166.844L64.8451 166.372C64.8318 166.312 64.9201 166.266 64.9827 166.296L65.5443 166.56L65.5573 166.57L64.9358 166.845L64.9358 166.844ZM65.7135 167.648L65.6946 167.648C65.6946 167.644 65.138 166.943 65.138 166.943L66.4438 166.469L65.7135 167.643L65.7135 167.647L65.7135 167.648ZM65.2214 167.349L65.6011 167.825L65.545 167.916L65.2214 167.355L65.2214 167.35L65.2214 167.349ZM68.317 174.015L67.1632 174.694L65.2373 170.614L68.3229 174.015L68.317 174.015ZM65.0154 169.129L65.5397 168.287L68.6232 173.677L65.0761 169.716C64.9243 169.547 64.8984 169.321 65.0166 169.129M66.542 168.719L68.0842 169.088L70.3825 173.574L66.5408 168.714L66.5408 168.719L66.542 168.719ZM69.9888 173.867L69.3221 173.814C69.1392 173.8 68.9819 173.71 68.9058 173.58L65.7988 168.441L65.8731 168.21L69.9888 173.867ZM75.0528 189.444L74.9944 186.431L76.0924 188.345L74.8677 189.953L75.0539 189.44L75.054 189.444L75.0528 189.444ZM81.1834 172.46L84.1214 177.766L84.0284 179.248C84.0231 179.373 83.8217 179.43 83.721 179.335L79.5833 175.688C79.3618 175.498 79.3038 175.222 79.4289 174.98L80.7187 172.462C80.8064 172.296 81.0954 172.295 81.1905 172.46M84.5149 181.05L85.9691 185.137L84.1803 185.955L84.5149 181.051L84.5149 181.05ZM86.2704 185C86.208 185.03 86.1253 185 86.1061 184.945L84.7859 181.234L86.4069 184.692C86.4581 184.807 86.408 184.933 86.2703 184.994M86.6623 190.628L85.6233 191.618C85.5857 191.653 85.5231 191.629 85.5287 191.584L85.9848 189.567L86.6634 190.628L86.6623 190.628ZM86.1265 189.114L86.1449 189.028L87.5193 189.816L86.9804 190.326L86.1312 189.115L86.1253 189.115L86.1265 189.114ZM87.5692 189.65L86.1759 188.853L86.5563 186.797L87.5704 189.655L87.5704 189.65L87.5692 189.65ZM78.0602 185.763L77.6793 186.262L77.5025 184.846L78.0673 185.763L78.0614 185.763L78.0602 185.763ZM75.9438 164.65L75.8267 165.062L75.7658 164.173L75.9509 164.65L75.945 164.65L75.9438 164.65ZM87.9471 189.743L86.6287 186.404L86.9841 184.549L84.6301 180.255L84.8436 177.586L80.7883 171.487L78.5268 170.679L73.6515 170.568L72.9447 168.823L73.0272 167.592L75.9757 166.111L75.956 165.925L76.3271 164.633L75.6843 163.189L75.4069 163.135L74.4237 165.41L73.5601 165.123L73.5602 165.158L72.7737 165.187L67.7333 164.619L66.1008 165.084L66.0959 164.069C66.09 164.069 66.4856 163.927 66.4856 163.927L66.8686 162.413L66.6417 162.319L63.3862 164.219L60.7917 170.094C60.7917 170.099 60.5044 173.109 60.5044 173.109L58.8735 176.553L59.782 178.317C59.8583 178.482 59.8657 178.773 59.8417 178.95L59.842 179.005C59.8361 179.005 62.6094 186.808 62.6094 186.808C62.7564 187.204 62.8021 187.621 62.7475 188.033L62.0508 193.436L65.9068 193.493L66.4506 191.566L66.5027 185.568L68.8357 186.772L68.5802 193.635L72.7118 193.615L72.4562 190.306L73.2138 186.992L74.1548 185.254L74.3397 185.675L74.3331 189.412L73.5713 191.862L76.4456 191.833L77.3615 190.02L77.7387 187.326L78.9827 185.793L77.4939 183.549L79.2266 182.852C79.4716 182.78 79.7419 182.809 79.9571 182.929L81.2752 183.786L85.2333 189.287L84.7383 192.269L86.9211 192.439L88.2776 191.96L87.9329 189.737L87.9459 189.741L87.9471 189.743Z" fill="black"/>
<path d="M196.706 165.304L196.714 166.916L196.308 166.95C195.984 166.976 195.741 167.196 195.742 167.455L195.787 176.631L192.692 176.646L188.021 169.868C187.561 169.213 187.255 168.761 186.927 168.195L186.865 168.196C186.939 168.868 186.984 169.662 186.988 170.343L187.01 174.979L187.985 175.046L187.993 176.659L183.619 176.681L183.612 175.068L184.565 174.991L184.529 167.51C184.528 167.251 184.284 167.033 183.958 167.011L183.572 166.98L183.564 165.368L187.593 165.348L192.263 171.971C192.611 172.472 192.999 173.038 193.358 173.628L193.398 173.628C193.333 172.915 193.299 172.104 193.296 171.464L193.277 167.468C193.276 167.209 193.032 166.991 192.706 166.969L192.3 166.939L192.292 165.326L196.707 165.304L196.706 165.304ZM179.78 171.717C179.792 174.245 178.538 175.11 176.609 175.12C174.681 175.129 173.439 174.285 173.427 171.748L173.421 170.419C173.408 167.906 174.642 167.025 176.57 167.016C178.497 167.006 179.761 167.868 179.773 170.388L179.78 171.717ZM176.561 165.175C172.968 165.192 170.743 166.759 170.761 170.431L170.767 171.761C170.785 175.416 173.006 176.978 176.618 176.961C180.231 176.943 182.445 175.36 182.427 171.704L182.421 170.375C182.403 166.703 180.143 165.157 176.561 165.175ZM168.051 168.118L167.854 167.219L165.51 167.231L165.548 175.125L166.523 175.193L166.53 176.781L161.933 176.803L161.925 175.215L162.879 175.138L162.84 167.244L160.517 167.255L160.329 168.155L158.614 168.164L158.601 165.497L169.743 165.443L169.756 168.11L168.052 168.118L168.051 168.118ZM157.058 165.497L157.066 167.11L156.661 167.144C156.336 167.17 156.093 167.39 156.095 167.649L156.139 176.824L153.045 176.839L148.374 170.061C147.914 169.407 147.608 168.954 147.279 168.389L147.218 168.389C147.292 169.061 147.337 169.855 147.34 170.536L147.363 175.172L148.338 175.24L148.346 176.853L143.972 176.874L143.964 175.261L144.918 175.184L144.882 167.703C144.88 167.444 144.636 167.226 144.311 167.204L143.925 167.174L143.917 165.561L147.946 165.541L152.616 172.165C152.964 172.665 153.351 173.231 153.71 173.821L153.75 173.821C153.686 173.108 153.652 172.297 153.649 171.658L153.63 167.662C153.628 167.402 153.384 167.184 153.059 167.162L152.653 167.132L152.645 165.519L157.06 165.498L157.058 165.497ZM132.159 176.949L132.151 175.337L133.105 175.26L133.068 167.779C133.067 167.52 132.823 167.301 132.497 167.279L132.112 167.249L132.104 165.637L142.1 165.588L142.112 168.197L140.336 168.206L140.16 167.356L135.736 167.378L135.75 170.255L140.914 170.229L140.923 171.939L135.758 171.964L135.774 175.198L140.178 175.177L140.366 174.292L142.142 174.284L142.155 176.918L132.159 176.966L132.159 176.95L132.159 176.949ZM130.582 165.626L130.59 167.239L130.022 167.282C129.768 167.299 129.555 167.446 129.475 167.642L125.908 176.972L121.98 176.992L118.322 167.696C118.25 167.502 118.036 167.365 117.782 167.342L117.244 167.304L117.237 165.691L121.813 165.669L121.821 167.282L121.039 167.35L123.342 173.515C123.588 174.171 123.805 174.932 123.94 175.539L123.981 175.539C124.09 174.93 124.298 174.167 124.539 173.509L126.782 167.322L126 167.261L125.992 165.648L130.589 165.626L130.579 165.626L130.582 165.626ZM105.724 177.078L105.716 175.466L106.67 175.388L106.633 167.908C106.632 167.649 106.388 167.43 106.062 167.408L105.676 167.378L105.669 165.765L115.664 165.717L115.677 168.326L113.901 168.335L113.725 167.485L109.3 167.507L109.314 170.384L114.479 170.358L114.488 172.068L109.323 172.093L109.339 175.327L113.743 175.306L113.931 174.421L115.707 174.413L115.72 177.047L105.724 177.095L105.724 177.079L105.724 177.078ZM100.603 169.355C100.61 170.806 99.5254 171.233 97.0804 171.245C94.6354 171.257 95.9941 171.25 95.4562 171.237L95.4381 167.517C95.9959 167.498 96.4736 167.496 97.0208 167.493C99.4458 167.481 100.595 167.784 100.602 169.259L100.603 169.356L100.603 169.355ZM103.088 175.413L100.781 172.467C102.29 171.957 103.22 171.053 103.211 169.326L103.211 169.221C103.196 166.23 100.372 165.701 96.9532 165.718C93.534 165.734 93.4622 165.767 91.8595 165.815L91.8674 167.428L92.2733 167.458C92.5977 167.481 92.8429 167.698 92.8442 167.957L92.8807 175.438L91.9068 175.515L91.9147 177.128L96.4615 177.106L96.4536 175.493L95.479 175.425L95.467 172.953L97.0498 172.945C97.4154 172.944 97.7704 172.942 98.0947 172.924L101.15 177.084L104.143 177.069L104.135 175.456L103.09 175.396L103.09 175.412L103.088 175.413Z" fill="black"/>
<path d="M132.872 183.698L129.727 183.713L129.845 183.129L130.109 183.104L130.575 180.937L130.322 180.914L130.451 180.33L133.597 180.315L133.408 181.159L132.769 181.162L132.768 180.951L131.642 180.957L131.482 181.671L133.177 181.662L133.048 182.271L131.353 182.279L131.185 183.074L132.311 183.068L132.412 182.849L133.051 182.846L132.872 183.698Z" fill="black"/>
<path d="M134.342 183.132C134.483 183.131 134.697 183.138 134.97 183.137C135.468 183.135 135.721 183.003 135.72 182.736C135.718 182.468 135.688 182.59 135.628 182.542C135.567 182.494 135.455 182.438 135.292 182.373L134.723 182.158C134.458 182.053 134.254 181.941 134.122 181.803C133.989 181.674 133.917 181.488 133.916 181.262C133.915 181.036 133.965 180.889 134.066 180.742C134.166 180.604 134.307 180.489 134.501 180.416C134.683 180.342 134.886 180.292 135.088 180.259C135.302 180.226 135.535 180.217 135.809 180.215C136.296 180.213 136.743 180.251 137.149 180.33L136.981 181.109L136.342 181.112L136.34 180.853C136.137 180.846 135.944 180.839 135.732 180.84C135.519 180.841 135.315 180.867 135.183 180.908C135.052 180.949 134.992 181.03 134.992 181.152C134.993 181.274 135.024 181.298 135.084 181.346C135.146 181.394 135.247 181.45 135.409 181.515L135.959 181.723C136.264 181.834 136.478 181.956 136.62 182.077C136.753 182.198 136.824 182.368 136.825 182.586C136.827 182.984 136.656 183.276 136.322 183.472C135.988 183.669 135.532 183.768 134.975 183.771C134.417 183.774 133.879 183.744 133.533 183.673L133.701 182.869L134.34 182.866L134.342 183.142L134.342 183.134L134.342 183.132Z" fill="black"/>
<path d="M141.029 181.144L140.41 181.147L140.409 180.912L139.851 180.915L139.385 183.056L139.649 183.08L139.53 183.663L137.927 183.671L138.046 183.087L138.33 183.062L138.796 180.92L138.248 180.922L138.137 181.159L137.518 181.162L137.706 180.293L141.228 180.276L141.04 181.144L141.029 181.144Z" fill="black"/>
<path d="M141.711 183.654L140.717 183.659L140.876 182.904L141.87 182.9L141.711 183.654Z" fill="black"/>
<path d="M146.592 183.631L143.537 183.646L143.626 183.224C143.715 182.81 143.865 182.501 144.098 182.29C144.33 182.079 144.704 181.866 145.241 181.652C145.637 181.504 145.879 181.39 145.991 181.316C146.092 181.243 146.153 181.145 146.152 181.016C146.151 180.887 146.101 180.87 145.999 180.839C145.897 180.807 145.715 180.791 145.45 180.792C145.186 180.794 145.156 180.794 144.893 180.811L144.782 181.088L144.143 181.091L144.311 180.328C144.463 180.286 144.686 180.253 144.97 180.219C145.254 180.186 145.518 180.176 145.761 180.175C146.755 180.17 147.254 180.419 147.257 180.921C147.259 181.423 147.227 181.173 147.168 181.286C147.107 181.399 147.047 181.498 146.966 181.571C146.885 181.652 146.775 181.725 146.632 181.808C146.491 181.889 146.36 181.955 146.248 182.004C146.136 182.053 145.995 182.11 145.812 182.184C145.357 182.357 145.073 182.487 144.952 182.569C144.831 182.65 144.75 182.797 144.711 182.999L146.031 182.993L146.142 182.733L146.781 182.73L146.593 183.631L146.592 183.631Z" fill="black"/>
<path d="M151.01 182.182C150.901 182.693 150.68 183.075 150.356 183.32C150.033 183.566 149.567 183.697 148.958 183.7C148.35 183.703 148.116 183.607 147.881 183.406C147.647 183.204 147.524 182.921 147.522 182.557C147.52 182.192 147.54 182.24 147.581 182.071L147.67 181.673C147.888 180.666 148.555 180.161 149.682 180.155C150.808 180.15 151.175 180.521 151.179 181.259C151.183 181.996 151.161 181.616 151.12 181.786L151.031 182.184L151.011 182.184L151.01 182.182ZM149.944 182.122L150.033 181.724C150.062 181.553 150.082 181.416 150.081 181.303C150.08 181.116 150.04 180.986 149.947 180.914C149.855 180.842 149.733 180.81 149.561 180.811C149.389 180.812 149.165 180.878 149.024 181.007C148.883 181.138 148.783 181.382 148.703 181.722L148.614 182.12C148.575 182.282 148.555 182.428 148.555 182.55C148.556 182.728 148.597 182.858 148.689 182.93C148.771 183.002 148.903 183.034 149.075 183.034C149.247 183.033 149.471 182.967 149.612 182.828C149.753 182.698 149.853 182.454 149.933 182.105L149.944 182.121L149.944 182.122Z" fill="black"/>
<path d="M155.049 182.162C154.939 182.674 154.718 183.055 154.395 183.301C154.072 183.546 153.605 183.678 152.997 183.681C152.388 183.684 152.154 183.588 151.92 183.386C151.685 183.185 151.562 182.902 151.56 182.537C151.559 182.173 151.579 182.221 151.619 182.051L151.708 181.653C151.926 180.647 152.594 180.141 153.72 180.136C154.846 180.13 155.214 180.502 155.217 181.239C155.221 181.977 155.199 181.596 155.159 181.766L155.07 182.164L155.05 182.164L155.049 182.162ZM153.983 182.103L154.072 181.705C154.102 181.534 154.121 181.396 154.121 181.283C154.12 181.097 154.079 180.967 153.987 180.895C153.894 180.823 153.773 180.79 153.601 180.791C153.428 180.792 153.205 180.858 153.064 180.988C152.923 181.119 152.823 181.362 152.743 181.703L152.654 182.101C152.615 182.263 152.594 182.409 152.595 182.53C152.596 182.708 152.636 182.838 152.729 182.91C152.81 182.983 152.943 183.015 153.115 183.014C153.287 183.013 153.511 182.947 153.652 182.809C153.793 182.678 153.893 182.435 153.973 182.086L153.983 182.102L153.983 182.103Z" fill="black"/>
<path d="M156.771 181.482L157.167 181.48C157.705 181.477 158.091 181.541 158.325 181.668C158.559 181.797 158.672 182.007 158.674 182.291C158.678 183.191 158.01 183.648 156.681 183.655C155.352 183.661 155.707 183.619 155.31 183.531L155.478 182.737L156.107 182.733L156.108 183.033C156.261 183.041 156.423 183.047 156.596 183.047C156.951 183.045 157.204 183.003 157.356 182.913C157.507 182.823 157.577 182.66 157.576 182.417C157.575 182.174 157.524 182.182 157.433 182.134C157.342 182.087 157.138 182.071 156.824 182.072L155.658 182.078L156.268 180.202L159.008 180.189L158.82 181.033L158.18 181.036L158.179 180.809L156.982 180.815L156.772 181.473L156.772 181.481L156.771 181.482Z" fill="black"/>
<path d="M125.114 182.503L93.9799 182.655L93.9807 182.826L125.115 182.674L125.114 182.503Z" fill="black"/>
<path d="M194.758 182.165L163.624 182.316L163.625 182.487L194.759 182.335L194.758 182.165Z" fill="black"/>
<path d="M97.5251 187.704C98.2658 187.7 99.0273 187.843 99.0307 188.547C99.0342 189.252 98.739 189.181 98.3137 189.288C98.8011 189.342 99.2389 189.632 99.2412 190.111C99.2446 190.808 98.4131 191.047 97.6724 191.05L95.9468 191.059L95.9305 187.703L97.5334 187.695L97.5228 187.704L97.5251 187.704ZM96.8583 188.331L96.8617 189.044L97.5517 189.04C97.836 189.039 98.1197 188.932 98.1184 188.673C98.1172 188.414 97.7924 188.326 97.5081 188.328L96.8583 188.331ZM96.8685 190.431L97.7212 190.426C98.0255 190.425 98.3198 190.302 98.3185 190.026C98.3171 189.75 97.9003 189.655 97.596 189.656L96.8754 189.66L96.8791 190.422L96.8685 190.431Z" fill="black"/>
<path d="M101.199 187.686L101.209 189.728C101.211 190.126 101.568 190.44 102.065 190.437C102.563 190.435 102.906 190.157 102.904 189.72L102.894 187.678L103.818 187.673L103.828 189.748C103.831 190.478 103.277 191.112 102.069 191.118C100.861 191.124 100.289 190.495 100.286 189.766L100.276 187.69L101.199 187.686Z" fill="black"/>
<path d="M106.107 191.009L105.183 191.014L105.167 187.658L106.09 187.654L106.107 191.009Z" fill="black"/>
<path d="M108.407 190.318L110.122 190.31L110.125 190.991L107.487 191.004L107.47 187.648L108.394 187.644L108.407 190.318Z" fill="black"/>
<path d="M112.544 187.631C113.874 187.625 114.993 188.098 114.999 189.297C115.005 190.496 113.931 190.972 112.673 190.978L111.141 190.985L111.124 187.63L112.545 187.623L112.545 187.631L112.544 187.631ZM112.568 190.298C113.39 190.294 114.048 190.024 114.044 189.27C114.041 188.516 113.38 188.301 112.618 188.305L112.05 188.307L112.06 190.293L112.567 190.291L112.567 190.299L112.568 190.298Z" fill="black"/>
<path d="M117.943 187.604L118.947 187.599L119.628 189.743L119.638 189.743L120.501 187.591L121.363 187.587L122.246 189.787L122.257 189.787L122.956 187.579L123.89 187.575L122.679 190.936L121.857 190.94L120.922 188.626L120.912 188.626L119.999 190.949L119.208 190.953L117.944 187.604L117.943 187.604Z" fill="black"/>
<path d="M124.854 187.57L127.706 187.556L127.709 188.237L125.781 188.247L125.784 188.871L127.6 188.862L127.604 189.543L125.787 189.552L125.791 190.233L127.821 190.223L127.824 190.905L124.861 190.919L124.845 187.563L124.855 187.572L124.854 187.57Z" fill="black"/>
<path d="M128.645 190.899L130.445 187.535L131.205 187.531L133.049 190.878L132.004 190.883L131.635 190.172L130.001 190.18L129.659 190.894L128.634 190.899L128.645 190.899ZM130.293 189.562L131.318 189.557L130.795 188.514L130.293 189.562Z" fill="black"/>
<path d="M134.934 190.188L136.649 190.18L136.652 190.861L134.014 190.874L133.997 187.519L134.921 187.514L134.934 190.188Z" fill="black"/>
<path d="M136.717 187.513L140.035 187.497L140.038 188.153L138.841 188.159L138.854 190.858L137.931 190.862L137.917 188.163L136.72 188.169L136.717 187.513Z" fill="black"/>
<path d="M141.009 187.492L141.933 187.488L141.939 188.736L143.735 188.727L143.729 187.479L144.652 187.474L144.669 190.83L143.745 190.834L143.738 189.384L141.942 189.392L141.949 190.843L141.025 190.848L141.009 187.492Z" fill="black"/>
<path d="M152.682 190.103L154.397 190.094L154.4 190.775L151.762 190.788L151.746 187.433L152.669 187.428L152.682 190.103Z" fill="black"/>
<path d="M156.329 190.764L155.405 190.769L155.389 187.413L156.312 187.409L156.329 190.764Z" fill="black"/>
<path d="M158.301 187.407L159.347 189.599L159.358 189.599L160.403 187.397L161.397 187.392L159.679 190.756L158.938 190.759L157.247 187.412L158.302 187.407L158.301 187.407Z" fill="black"/>
<path d="M162.37 187.387L165.222 187.373L165.225 188.055L163.297 188.064L163.3 188.689L165.116 188.68L165.12 189.361L163.303 189.37L163.307 190.051L165.337 190.041L165.34 190.722L162.377 190.736L162.361 187.381L162.371 187.389L162.37 187.387Z" fill="black"/>
<path d="M170.439 187.348C171.179 187.345 171.941 187.487 171.944 188.192C171.948 188.896 171.653 188.825 171.227 188.933C171.715 188.987 172.153 189.277 172.155 189.755C172.158 190.453 171.327 190.691 170.586 190.695L168.86 190.703L168.844 187.348L170.447 187.34L170.436 187.348L170.439 187.348ZM169.772 187.975L169.775 188.688L170.465 188.685C170.75 188.684 171.033 188.577 171.032 188.318C171.031 188.059 170.706 187.971 170.422 187.972L169.772 187.975ZM169.782 190.075L170.635 190.071C170.939 190.069 171.233 189.946 171.232 189.67C171.231 189.394 170.814 189.299 170.51 189.301L169.789 189.304L169.793 190.067L169.782 190.075Z" fill="black"/>
<path d="M173.219 187.335L176.071 187.321L176.074 188.002L174.146 188.011L174.149 188.636L175.965 188.627L175.968 189.308L174.152 189.317L174.155 189.998L176.185 189.988L176.188 190.669L173.226 190.684L173.209 187.328L173.22 187.337L173.219 187.335Z" fill="black"/>
<path d="M177.034 187.316L180.352 187.3L180.355 187.957L179.158 187.963L179.171 190.662L178.248 190.666L178.235 187.967L177.037 187.973L177.034 187.316Z" fill="black"/>
<path d="M180.951 187.297L184.269 187.281L184.272 187.937L183.075 187.943L183.088 190.642L182.165 190.647L182.152 187.948L180.954 187.953L180.951 187.297Z" fill="black"/>
<path d="M185.274 187.276L188.126 187.262L188.129 187.943L186.201 187.953L186.204 188.577L188.02 188.568L188.023 189.249L186.207 189.258L186.21 189.939L188.24 189.93L188.244 190.611L185.281 190.625L185.264 187.27L185.275 187.278L185.274 187.276Z" fill="black"/>
<path d="M189.491 190.603L189.475 187.247L191.129 187.239C191.889 187.235 192.682 187.434 192.686 188.253C192.69 189.071 192.355 189.089 191.787 189.173L192.859 190.586L191.752 190.592L190.873 189.258L190.417 189.26L190.423 190.598L189.489 190.603L189.491 190.603ZM190.984 188.634C191.41 188.632 191.736 188.574 191.734 188.257C191.732 187.941 191.479 187.869 191.042 187.872L190.413 187.875L190.417 188.637L190.995 188.634L190.984 188.634Z" fill="black"/>
<path d="M149.046 189.511L147.382 189.519L147.379 188.871L149.043 188.863L149.046 189.511Z" fill="black"/>
</g>
</g>
<defs>
<filter id="filter0_d_55_1261" x="33.3637" y="140.398" width="622.978" height="384.604" filterUnits="userSpaceOnUse" color-interpolation-filters="sRGB">
<feFlood flood-opacity="0" result="BackgroundImageFix"/>
<feColorMatrix in="SourceAlpha" type="matrix" values="0 0 0 0 0 0 0 0 0 0 0 0 0 0 0 0 0 0 127 0" result="hardAlpha"/>
<feOffset dy="11.871"/>
<feGaussianBlur stdDeviation="2.96776"/>
<feComposite in2="hardAlpha" operator="out"/>
<feColorMatrix type="matrix" values="0 0 0 0 0 0 0 0 0 0 0 0 0 0 0 0 0 0 0.25 0"/>
<feBlend mode="normal" in2="BackgroundImageFix" result="effect1_dropShadow_55_1261"/>
<feBlend mode="normal" in="SourceGraphic" in2="effect1_dropShadow_55_1261" result="shape"/>
</filter>
<filter id="filter1_d_55_1261" x="-15.844" y="112.827" width="721.394" height="477.084" filterUnits="userSpaceOnUse" color-interpolation-filters="sRGB">
<feFlood flood-opacity="0" result="BackgroundImageFix"/>
<feColorMatrix in="SourceAlpha" type="matrix" values="0 0 0 0 0 0 0 0 0 0 0 0 0 0 0 0 0 0 127 0" result="hardAlpha"/>
<feOffset dy="27.5716"/>
<feGaussianBlur stdDeviation="27.5716"/>
<feComposite in2="hardAlpha" operator="out"/>
<feColorMatrix type="matrix" values="0 0 0 0 0 0 0 0 0 0 0 0 0 0 0 0 0 0 0.11 0"/>
<feBlend mode="normal" in2="BackgroundImageFix" result="effect1_dropShadow_55_1261"/>
<feBlend mode="normal" in="SourceGraphic" in2="effect1_dropShadow_55_1261" result="shape"/>
</filter>
<filter id="filter2_d_55_1261" x="552.713" y="233.032" width="35.2914" height="35.2911" filterUnits="userSpaceOnUse" color-interpolation-filters="sRGB">
<feFlood flood-opacity="0" result="BackgroundImageFix"/>
<feColorMatrix in="SourceAlpha" type="matrix" values="0 0 0 0 0 0 0 0 0 0 0 0 0 0 0 0 0 0 127 0" result="hardAlpha"/>
<feOffset dy="6.80719"/>
<feGaussianBlur stdDeviation="3.40359"/>
<feComposite in2="hardAlpha" operator="out"/>
<feColorMatrix type="matrix" values="0 0 0 0 0 0 0 0 0 0 0 0 0 0 0 0 0 0 0.14 0"/>
<feBlend mode="normal" in2="BackgroundImageFix" result="effect1_dropShadow_55_1261"/>
<feBlend mode="normal" in="SourceGraphic" in2="effect1_dropShadow_55_1261" result="shape"/>
</filter>
<filter id="filter3_d_55_1261" x="429.614" y="147.182" width="275.936" height="168.574" filterUnits="userSpaceOnUse" color-interpolation-filters="sRGB">
<feFlood flood-opacity="0" result="BackgroundImageFix"/>
<feColorMatrix in="SourceAlpha" type="matrix" values="0 0 0 0 0 0 0 0 0 0 0 0 0 0 0 0 0 0 127 0" result="hardAlpha"/>
<feOffset dy="27.5716"/>
<feGaussianBlur stdDeviation="27.5716"/>
<feComposite in2="hardAlpha" operator="out"/>
<feColorMatrix type="matrix" values="0 0 0 0 0 0 0 0 0 0 0 0 0 0 0 0 0 0 0.05 0"/>
<feBlend mode="normal" in2="BackgroundImageFix" result="effect1_dropShadow_55_1261"/>
<feBlend mode="normal" in="SourceGraphic" in2="effect1_dropShadow_55_1261" result="shape"/>
</filter>
<filter id="filter4_d_55_1261" x="479.243" y="174.754" width="176.678" height="62.8148" filterUnits="userSpaceOnUse" color-interpolation-filters="sRGB">
<feFlood flood-opacity="0" result="BackgroundImageFix"/>
<feColorMatrix in="SourceAlpha" type="matrix" values="0 0 0 0 0 0 0 0 0 0 0 0 0 0 0 0 0 0 127 0" result="hardAlpha"/>
<feOffset dy="5.51432"/>
<feGaussianBlur stdDeviation="2.75716"/>
<feComposite in2="hardAlpha" operator="out"/>
<feColorMatrix type="matrix" values="0 0 0 0 0 0 0 0 0 0 0 0 0 0 0 0 0 0 0.25 0"/>
<feBlend mode="normal" in2="BackgroundImageFix" result="effect1_dropShadow_55_1261"/>
<feBlend mode="normal" in="SourceGraphic" in2="effect1_dropShadow_55_1261" result="shape"/>
</filter>
<linearGradient id="paint0_linear_55_1261" x1="293.478" y1="275.251" x2="328.214" y2="408.589" gradientUnits="userSpaceOnUse">
<stop stop-color="#109D9D"/>
<stop offset="0.485577" stop-color="#69D5D5"/>
<stop offset="1" stop-color="#95F0F0" stop-opacity="0"/>
</linearGradient>
<clipPath id="clip0_55_1261">
<rect width="663.833" height="600.611" fill="white"/>
</clipPath>
</defs>
</svg>
