<svg width="101" height="19" viewBox="0 0 101 19" fill="none" xmlns="http://www.w3.org/2000/svg">
<path d="M9.57836 0L11.7229 6.89057H18.9681L13.1066 11.1492L15.3455 18.0397L9.57836 13.7811L3.62259 18.0397L5.86147 11.1492L0 6.89057H7.24517L9.57836 0Z" fill="#F1CB2F"/>
<path d="M29.8635 0L32.0081 6.89057H39.2533L33.3918 11.1492L35.6307 18.0397L29.8635 13.7811L23.9077 18.0397L26.1466 11.1492L20.2852 6.89057H27.5303L29.8635 0Z" fill="#F1CB2F"/>
<path d="M50.1487 0L52.2933 6.89057H59.5385L53.677 11.1492L55.9159 18.0397L50.1487 13.7811L44.193 18.0397L46.4318 11.1492L40.5704 6.89057H47.8155L50.1487 0Z" fill="#F1CB2F"/>
<path d="M70.4339 0L72.5785 6.89057H79.8236L73.9622 11.1492L76.201 18.0397L70.4339 13.7811L64.4781 18.0397L66.717 11.1492L60.8555 6.89057H68.1007L70.4339 0Z" fill="#F1CB2F"/>
<path d="M90.719 0L92.8636 6.89057H100.109L94.2473 11.1492L96.4862 18.0397L90.719 13.7811L84.7633 18.0397L87.0022 11.1492L81.1407 6.89057H88.3859L90.719 0Z" fill="#F1CB2F"/>
</svg>
