<?xml version="1.0" encoding="UTF-8"?>
<svg id="Layer_1" xmlns="http://www.w3.org/2000/svg" version="1.1" viewBox="0 0 1232.34 402.5">
  <!-- Generator: Adobe Illustrator 30.3.0, SVG Export Plug-In . SVG Version: 2.1.3 Build 182)  -->
  <defs>
    <style>
      .st0 {
        fill: #fff;
      }
    </style>
  </defs>
  <path class="st0" d="M263.42,344.55l3.09-3.57c.59-.69,1.76-.27,1.81.64l.21,11.41-5.12-8.48h0ZM251.64,358.25l7.36-8.53c.8-.91,2.24-.75,2.83.32l3.41,6.77c.27.53-.11,1.12-.69,1.12l-12.9.27v.05ZM248.38,320.77l4.91-13.86-2.19,17.06-1.33-.96-1.23-1.97-.16-.27h0ZM245.45,316.18l-8.69-13.65,18.34-8.64-.75,5.17-5.97,16.74c-.48,1.28-2.19,1.49-2.93.32M217.14,268.93v-.11c-.05,0-.16-.05-.16-.05l-19.04-12.53-4.53-3.2,43.99-17.12-3.25,60.95-17.01-27.94ZM178.05,261.9l-1.17-2.4,12.64-4.91,8.43,5.92-14.45,3.84c-2.19.59-4.43-.48-5.44-2.45M179.49,305.99c0,.32,0,.59-.21.85l-7.84,12.8v.11c-.05,0-10.45-22.88-10.45-22.88l-.37-28.53c0-1.44.8-2.72,2.13-3.25,3.2-1.33,8.85-3.57,8.85-3.57l4.11,8.85c.48,1.07.8,2.24.91,3.41l2.83,32.26.05-.05ZM176.66,331.38l-2.4-5.33,4.16-6.67-1.76,12ZM175.81,337.3l-16.8,13.12,14.18-22.56,3.04,6.72-.37,2.77-.05-.05ZM167.76,353.56l-10.82.11,1.39-2.24,14.24-9.28c.64-.43,1.44.21,1.17.96l-3.25,8.53c-.43,1.17-1.55,1.92-2.77,1.92M143.92,259.12l-13.28-29.38,14.93-21.38,10.88,22.61.27,29.65c0,1.6-1.6,2.72-3.09,2.13l-9.76-3.68.05.05ZM150.32,273.15l-5.39-11.89,11.68,4.37-3.2,7.47c-.59,1.33-2.45,1.33-3.09,0M156.35,286.48l-1.12-2.45,1.28-4.21-.16,6.61v.05ZM139.82,292.08l-37.06-26.02s12.05-15.46,12.42-15.94l27.41,10.34,8.27,18.29-5.01,11.62c-1.01,2.4-4,3.2-6.13,1.71M134.75,341.72l.91,20.16-7.04-20.85,10.61-20.9-4.48,21.6ZM114.7,371.8l10.08-25.17,7.25,22.66c.32.96-.37,2.03-1.39,2.08l-15.2,1.39c-.53,0-.96-.48-.75-1.01M113.63,310.15l8.96,29.38c.32,1.07.27,2.19-.16,3.2l-10.34,24.58,1.55-57.16h0ZM116.3,303.17l26.93-2.99-17.33,35.35-11.3-29.54c-.48-1.28.37-2.67,1.71-2.83M112.67,301.52l-23.09-16.32,8.75-12c1.6-2.24,4.75-2.72,6.93-1.12l32.31,23.52-24.9,5.92h0ZM88.52,259.39l8.16,7.52-7.68,11.36-.48-18.88ZM85.53,253.1l-18.77-13.06c.37-2.61.64-5.23.96-7.84l21.38,8.05c-1.17,4.32-2.4,8.59-3.57,12.9M83.51,285.2l-3.15,4.64,4.27-19.2-1.12,14.61v-.05ZM83.13,350.41l-12.8-14.61c-1.07-1.23-1.49-2.99-1.01-4.53l7.84-27.14,6.24-8.37c0,.75-.27,44.95-.27,54.71M75.99,357.45l-6.08-19.04,10.13,14.24c.75,1.01.37,2.51-.75,3.09l-3.31,1.71ZM78.55,368.06l-1.92-5.01,3.2-2.08-1.28,7.09h0ZM60.04,370.89l12.9-6.4.85,4.11c.27.75-.27,1.55-1.07,1.55l-12.74.75h.05ZM59.08,295.22l-19.94-69.32c-.27-.85.75-1.55,1.44-.96l21.86,17.17-3.36,53.16v-.05ZM39.19,197.8l20.26,3.52-21.49,15.36,1.23-18.88ZM33.12,195.51l-3.41-.59,7.2-11.57-1.01,10.08c-.16,1.39-1.39,2.35-2.77,2.08M33.92,212.57l-4.32-14.02c-.32-1.07.53-2.08,1.65-1.92l4.27.59-1.55,15.36h-.05ZM39.67,219.77l24.96-15.57-1.01,24.58-23.89-9.01h-.05ZM63.51,230.59l-.27,5.97-19.89-13.6,20.16,7.57v.05ZM62.98,313.19l-.75-2.61,4-65.75,17.54,12.32-10.93,44.9-7.95,11.46c-.53.75-1.65.53-1.92-.32M64.52,319.17l3.89-3.63-1.92,9.28-1.97-5.65h0ZM59.56,348.55l1.55-22.24,4.16,7.36-5.71,14.88h0ZM67.19,337.19l4.64,22.24-11.04,6.08,6.45-28.32h-.05ZM42.18,172.68l29.22-45.27-5.71,69.48-4.64,3.31-17.12-2.88c-2.61-.43-4.48-2.77-4.32-5.44l.96-14.18c.11-1.76.69-3.52,1.65-5.01M64.26,101.39l6.35,19.94-29.27,48.47-.27-6.88c-.11-2.13.27-4.27,1.07-6.29l22.13-55.3v.05ZM45.43,126.19c3.04-7.2,14.5-34.82,14.5-34.82l1.39,3.73-17.65,50.6.96-16c.05-1.23.37-2.4.8-3.52M65.43,71.85l3.84,6.51h-4.11c-.96,0-1.65-.96-1.33-1.92l1.6-4.64v.05ZM64.58,89.34l-1.33-4.85,4.37-1.12-3.04,5.97ZM68.84,102.19l-2.93-7.09s1.17-1.81,1.65-2.77v.21l1.23,9.65h.05ZM80.73,75.21l3.36-7.79v7.57l-6.56,2.77-4.85.64-2.51-5.92,10.61,2.67-.05.05ZM81.16,65.29l-2.4,5.92-6.88-1.6c-.43-.11-.48-.69-.05-.85l9.33-3.47ZM89.16,51l-3.36,9.55-8.27,1.81s11.62-11.36,11.62-11.36ZM95.08,75.26l-4.8,9.97-7.63,4.16-4.05-6.45c-.53-.85-.16-1.97.8-2.29,0,0,15.68-5.39,15.68-5.39ZM107.24,79.05l-14.13,6.29,5.71-11.3,8.48,5.01h-.05ZM116.35,74.94l-7.2,3.2-7.89-4.64,15.09,1.44ZM126.7,75.95l12,19.68-27.73-16.37,8.85-3.95s6.88.64,6.88.64ZM139.71,77.18l1.12,18.72-12.05-19.73s10.93,1.01,10.93,1.01ZM156.08,157.65l-31.73,7.36-17.65-51.46-21.92-11.46h-.05l7.2-14.34,17.17-6.45,31.67,17.49.64,19.2,14.72,39.62-.05.05ZM148.62,79.58l-4.53,15.04-.32-16.53,3.57-.16c.85,0,1.55.8,1.28,1.65M151.55,89.66l-5.39,3.79,3.68-10.29,1.71,6.45v.05ZM156.4,80.43l-1.44,4.11-2.4-4.48c-.27-.53.27-1.12.8-.91l3.09,1.23-.05.05ZM159.28,81.61l6.08,2.45-8.37,4.27,2.29-6.72ZM165.2,64.17l.59,17.28-4-1.6c-.96-.37-1.44-1.44-1.12-2.4l4.53-13.28ZM167.55,152.85l-7.2,3.79-9.49-21.65,16.69,17.92v-.05ZM185.3,135.94l-16.37,16.26-14.18-16.16,30.55-.11ZM202.58,143.36l-30.55,7.25,14.93-12.37c1.55-1.28,3.73-1.49,5.49-.53l10.18,5.6-.05.05ZM194.26,180.47l-24.1-27.09,40.26-10.4-16.21,37.49h.05ZM172.82,238.49l23.68-52.47,40.15,45.54c.59.69.91,1.55.85,2.45l-43.62,16.96c-1.33.53-2.83.32-4-.48l-17.01-12.05-.05.05ZM170.37,245.58l1.49-3.52,16,11.3-11.73,4.59-5.76-12.37ZM167.44,252.24l3.52,7.68-9.01,3.52,5.55-11.2h-.05ZM164.19,246.33l-2.61,6.93-1.55-15.14,4.16,8.21h0ZM124.62,168.05l28.48-6.56-9.97,8.53-18.45-1.97h-.05ZM128.19,224.3l-6.35-13.97-18.56-3.41v-.27c-.05,0-6.88-25.17-6.88-25.17l12.69-10.5,33.97,3.68,25.33-20.9,24.9,28.64-24.74,53.54-4.53-3.25c-1.01-.69-1.81-1.65-2.35-2.77l-15.3-31.14-18.24,25.38.05.16ZM129.47,231.29l12.21,26.98-25.38-9.55,13.17-17.38v-.05ZM93.58,240.14l9.17-31.35,14.72,2.56c1.97.32,3.68,1.65,4.53,3.52l3.57,7.89c.91,1.97.64,4.27-.59,5.97l-13.12,18.29-18.29-6.88h0ZM93.1,241.74l17.7,6.67-8.59,11.94c-1.12,1.55-3.25,1.92-4.85.8l-8.05-5.76,3.73-13.65h.05ZM98.17,207.99s-7.68,27.14-8.64,30.61l-21.65-8.16,2.61-27.2,27.62,4.75h.05ZM93.32,186.55l5.28,13.86c.64,1.71.75,3.57.21,5.28l-.21.75-27.94-4.69.16-2.03,19.89-14.02c.91-.64,2.19-.27,2.56.8M75.03,126.29l14.72,50.39c.37,1.33-.11,2.72-1.23,3.57l-17.65,12.74,4.16-66.71ZM80.79,106.03l-4.27,8.43c-.48.96-1.92.69-1.97-.37l-2.4-27.14,8.64,19.09ZM76.63,92.65l-.75-5.01c-.11-.64.64-1.12,1.17-.8l4.75,2.83h0l.11.11-5.28,2.88h0ZM83.19,101.23h-.16c0-.05-4.69-7.52-4.69-7.52l11.09-4.96-6.24,12.42v.05ZM79.03,98.03l3.2,5.07-.48.96-2.72-5.97v-.05ZM105,168.95l-9.81,7.15-16.16-43.41,26.02,36.26h-.05ZM77.21,116.91l4.48-8.91,25.92,57.38-29.91-42.23c-1.28-1.81-1.49-4.21-.48-6.24M90.17,112.64l13.06,4,19.3,47.73-32.37-51.78v.05ZM119.18,167.46l-5.65-.59c-1.55-.16-2.88-1.12-3.52-2.51l-26.13-54.71.64-2.45,34.66,60.26h0ZM161.47,333.08l-.37-31.99,9.23,20.37-10.45,17.01,1.6-5.44v.05ZM214.15,153.11l24.69,56.47-.85,15.73c-.05,1.33-1.76,1.92-2.61.91l-34.93-38.93c-1.87-2.03-2.35-4.96-1.28-7.52l11.04-26.66c.75-1.76,3.2-1.76,4,0M242.04,244.46l12.16,43.46-15.2,8.59,3.04-52.04h0ZM256.76,286.48h0c-.53.32-1.23,0-1.39-.59l-11.04-39.46,13.6,36.79c.43,1.23,0,2.56-1.17,3.2M259.85,346.25l-8.85,10.45c-.32.37-.85.11-.8-.37l3.95-21.38,5.71,11.3h0ZM255.37,330.15l.16-.91,11.62,8.43-4.59,5.39-7.15-12.9h-.05ZM267.58,335.91l-11.78-8.53,3.31-21.81,8.48,30.39v-.05ZM187.12,294.16l-3.25,5.28-1.44-15.04,4.75,9.76h-.05ZM170.05,69.93l-1.01,4.37-.48-9.44,1.55,5.07h-.05ZM270.78,336.92l-11.04-35.51,3.09-19.68-19.78-45.7,1.92-28.32-34.13-64.95-19.14-8.69-41.33-1.44-5.92-18.56.75-13.06,25.06-15.57-.16-1.97,3.2-13.7-5.39-15.36-2.35-.59-8.43,24.1-7.31-3.09v.37l-6.67.27-42.71-6.29-13.86,4.85v-10.77c-.05,0,3.31-1.49,3.31-1.49l3.31-16.05-1.92-1.01-27.68,20-22.24,62.23h0c0,.05-2.56,31.99-2.56,31.99l-13.97,36.47,7.63,18.77c.64,1.76.69,4.85.48,6.72v.59c-.05,0,23.14,82.97,23.14,82.97,1.23,4.21,1.6,8.64,1.12,13.01l-6.13,57.32,32.69.8,4.69-20.42.69-63.67,19.73,12.9-2.45,72.84h35.03l-2.03-35.14,6.56-35.14,8.05-18.4,1.55,4.48-.21,39.67-6.56,25.97,24.37-.16,7.84-19.2,3.31-28.58,10.61-16.21-12.53-23.89,14.72-7.31c2.08-.75,4.37-.43,6.19.85l11.14,9.17,33.33,58.6-4.32,31.62,18.5,1.92,11.52-5.01-2.83-23.62.11.05Z"/>
  <g>
    <path class="st0" d="M1193.88,83.13v17.12l-3.44.34c-2.75.26-4.82,2.58-4.82,5.33v97.4h-26.24l-39.32-72.19c-3.87-6.97-6.45-11.79-9.21-17.81h-.52c.6,7.14.95,15.57.95,22.8v49.21l8.26.77v17.12h-37.08v-17.12l8.09-.77v-79.41c0-2.75-2.06-5.08-4.82-5.33l-3.27-.34v-17.12h34.16l39.32,70.55c2.93,5.33,6.19,11.36,9.21,17.64h.34c-.52-7.57-.77-16.18-.77-22.97v-42.42c0-2.75-2.06-5.08-4.82-5.33l-3.44-.34v-17.12h37.43ZM1050.11,150.33c0,26.84-10.67,35.96-27.02,35.96s-26.84-9.03-26.84-35.96v-14.11c0-26.67,10.5-35.96,26.84-35.96s27.02,9.21,27.02,35.96v14.11ZM1023.09,80.72c-30.46,0-49.39,16.52-49.39,55.5v14.11c0,38.8,18.76,55.5,49.39,55.5s49.47-16.69,49.47-55.5v-14.11c0-38.98-19.1-55.5-49.47-55.5M950.82,111.52l-1.63-9.55h-19.88v83.8l8.26.77v16.86h-38.98v-16.86l8.09-.77v-83.8h-19.7l-1.63,9.55h-14.54v-28.31h94.47v28.31h-14.45ZM857.73,83.13v17.12l-3.44.34c-2.75.26-4.82,2.58-4.82,5.33v97.4h-26.24l-39.32-72.19c-3.87-6.97-6.45-11.79-9.21-17.81h-.52c.6,7.14.95,15.57.95,22.8v49.21l8.26.77v17.12h-37.08v-17.12l8.09-.77v-79.41c0-2.75-2.06-5.08-4.82-5.33l-3.27-.34v-17.12h34.16l39.32,70.55c2.93,5.33,6.19,11.36,9.21,17.64h.34c-.52-7.57-.77-16.18-.77-22.97v-42.42c0-2.75-2.06-5.08-4.82-5.33l-3.44-.34v-17.12h37.43ZM646.15,203.41v-17.12l8.09-.77v-79.41c0-2.75-2.06-5.08-4.82-5.33l-3.27-.34v-17.12h84.75v27.7h-15.06l-1.46-9.03h-37.51v30.54h43.79v18.15h-43.79v34.33h37.34l1.63-9.38h15.06v27.96h-84.75v-.17ZM633.25,83.13v17.12l-4.82.43c-2.15.17-3.96,1.72-4.65,3.79l-30.63,98.86h-33.3l-30.63-98.86c-.6-2.06-2.41-3.53-4.56-3.79l-4.56-.43v-17.12h38.8v17.12l-6.63.69,19.27,65.56c2.06,6.97,3.87,15.06,4.99,21.51h.34c.95-6.45,2.75-14.54,4.82-21.51l19.27-65.56-6.63-.69v-17.12h38.98-.09ZM422.02,203.41v-17.12l8.09-.77v-79.41c0-2.75-2.06-5.08-4.82-5.33l-3.27-.34v-17.12h84.75v27.7h-15.06l-1.46-9.03h-37.51v30.54h43.79v18.15h-43.79v34.33h37.34l1.63-9.38h15.06v27.96h-84.75v-.17ZM378.92,121.16c0,15.4-9.21,19.88-29.94,19.88s-9.21,0-13.77-.17v-39.49c4.73-.17,8.78-.17,13.42-.17,20.56,0,30.29,3.27,30.29,18.93v1.03ZM399.74,185.6l-19.44-31.4c12.82-5.33,20.74-14.88,20.74-33.21v-1.12c0-31.75-23.92-37.51-52.91-37.51s-29.6.34-43.19.77v17.12l3.44.34c2.75.26,4.82,2.58,4.82,5.33v79.41l-8.26.77v17.12h38.55v-17.12l-8.26-.77v-26.24h13.42c3.1,0,6.11,0,8.86-.17l25.73,44.31h25.38v-17.12l-8.86-.69v.17Z"/>
    <g>
      <path class="st0" d="M651.92,275.08h-26.67l1.03-6.19,2.24-.26,4.04-22.97-2.15-.26,1.12-6.19h26.67l-1.63,8.95h-5.42v-2.24h-9.55l-1.38,7.57h14.37l-1.12,6.45h-14.37l-1.46,8.43h9.55l.86-2.32h5.42l-1.55,9.03h0Z"/>
      <path class="st0" d="M664.4,269.15c1.2,0,3.01.09,5.33.09,4.22,0,6.37-1.38,6.37-4.22s-.26-1.55-.77-2.06-1.46-1.12-2.84-1.81l-4.82-2.32c-2.24-1.12-3.96-2.32-5.08-3.79-1.12-1.38-1.72-3.36-1.72-5.76s.43-3.96,1.29-5.51c.86-1.46,2.06-2.67,3.7-3.44,1.55-.77,3.27-1.29,4.99-1.63,1.81-.34,3.79-.43,6.11-.43,4.13,0,7.92.43,11.36,1.29l-1.46,8.26h-5.42v-2.75c-1.72-.09-3.36-.17-5.16-.17s-3.53.26-4.65.69-1.63,1.29-1.63,2.58.26,1.55.77,2.06c.52.52,1.38,1.12,2.75,1.81l4.65,2.24c2.58,1.2,4.39,2.5,5.59,3.79,1.12,1.29,1.72,3.1,1.72,5.42,0,4.22-1.46,7.31-4.3,9.38s-6.71,3.1-11.44,3.1-9.29-.34-12.22-1.12l1.46-8.52h5.42v2.93-.09Z"/>
      <path class="st0" d="M721.18,248.41h-5.25v-2.5h-4.73l-4.04,22.71,2.24.26-1.03,6.19h-13.59l1.03-6.19,2.41-.26,4.04-22.71h-4.65l-.95,2.5h-5.25l1.63-9.21h29.86l-1.63,9.21h-.09Z"/>
      <path class="st0" d="M726.86,275.08h-8.43l1.38-8h8.43l-1.38,8h0Z"/>
      <path class="st0" d="M768.24,275.08h-25.9l.77-4.47c.77-4.39,2.06-7.66,4.04-9.89s5.16-4.47,9.72-6.71c3.36-1.55,5.42-2.75,6.37-3.53.86-.77,1.38-1.81,1.38-3.18s-.43-1.55-1.29-1.89-2.41-.52-4.65-.52-2.5,0-4.73.17l-.95,2.93h-5.42l1.46-8.09c1.29-.43,3.18-.77,5.59-1.12,2.41-.34,4.65-.43,6.71-.43,8.43,0,12.65,2.67,12.65,8s-.26,2.67-.77,3.87c-.52,1.2-1.03,2.24-1.72,3.01-.69.86-1.63,1.63-2.84,2.5-1.2.86-2.32,1.55-3.27,2.06-.95.52-2.15,1.12-3.7,1.89-3.87,1.81-6.28,3.18-7.31,4.04s-1.72,2.41-2.06,4.56h11.19l.95-2.75h5.42l-1.63,9.55h0Z"/>
      <path class="st0" d="M805.76,259.94c-.95,5.42-2.84,9.46-5.59,12.05s-6.71,3.96-11.87,3.96-7.14-1.03-9.12-3.18-3.01-5.16-3.01-9.03.17-3.36.52-5.16l.77-4.22c1.89-10.67,7.57-16,17.12-16s12.65,3.96,12.65,11.79-.17,3.79-.52,5.59l-.77,4.22h-.17ZM796.72,259.25l.77-4.22c.26-1.81.43-3.27.43-4.47,0-1.98-.34-3.36-1.12-4.13s-1.81-1.12-3.27-1.12-3.36.69-4.56,2.06c-1.2,1.38-2.06,3.96-2.75,7.57l-.77,4.22c-.34,1.72-.52,3.27-.52,4.56,0,1.89.34,3.27,1.12,4.04.69.77,1.81,1.12,3.27,1.12s3.36-.69,4.56-2.15c1.2-1.38,2.06-3.96,2.75-7.66l.09.17Z"/>
      <path class="st0" d="M840,259.94c-.95,5.42-2.84,9.46-5.59,12.05s-6.71,3.96-11.87,3.96-7.14-1.03-9.12-3.18-3.01-5.16-3.01-9.03.17-3.36.52-5.16l.77-4.22c1.89-10.67,7.57-16,17.12-16s12.65,3.96,12.65,11.79-.17,3.79-.52,5.59l-.77,4.22h-.17ZM830.97,259.25l.77-4.22c.26-1.81.43-3.27.43-4.47,0-1.98-.34-3.36-1.12-4.13s-1.81-1.12-3.27-1.12-3.36.69-4.56,2.06c-1.2,1.38-2.06,3.96-2.75,7.57l-.77,4.22c-.34,1.72-.52,3.27-.52,4.56,0,1.89.34,3.27,1.12,4.04.69.77,1.81,1.12,3.27,1.12s3.36-.69,4.56-2.15c1.2-1.38,2.06-3.96,2.75-7.66l.09.17Z"/>
      <path class="st0" d="M854.63,252.8h3.36c4.56,0,7.83.69,9.81,2.06,1.98,1.38,2.93,3.61,2.93,6.63,0,9.55-5.68,14.37-16.95,14.37s-8.26-.43-11.62-1.38l1.46-8.43h5.33v3.18c1.29.09,2.67.17,4.13.17,3.01,0,5.16-.43,6.45-1.38s1.89-2.67,1.89-5.25-.43-2.5-1.2-3.01-2.5-.69-5.16-.69h-9.89l5.25-19.88h23.23l-1.63,8.95h-5.42v-2.41h-10.15l-1.81,6.97v.09Z"/>
    </g>
    <g>
      <rect class="st0" x="322.22" y="262.01" width="263.97" height="1.81"/>
      <rect class="st0" x="912.7" y="262.01" width="263.97" height="1.81"/>
    </g>
    <g>
      <g>
        <path class="st0" d="M352.07,315.78c6.28,0,12.73,1.55,12.73,9.03s-2.5,6.71-6.11,7.83h0c4.13.6,7.83,3.7,7.83,8.78,0,7.4-7.06,9.89-13.34,9.89h-14.63v-35.62h13.59l-.09.09ZM346.39,322.4v7.57h5.85c2.41,0,4.82-1.12,4.82-3.87s-2.75-3.7-5.16-3.7h-5.51ZM346.39,344.69h7.23c2.58,0,5.08-1.29,5.08-4.22s-3.53-3.96-6.11-3.96h-6.11v8.09l-.09.09Z"/>
        <path class="st0" d="M383.22,315.78v21.68c0,4.22,3.01,7.57,7.23,7.57s7.14-2.93,7.14-7.57v-21.68h7.83v22.03c0,7.74-4.73,14.45-14.97,14.45s-15.06-6.71-15.06-14.45v-22.03h7.83,0Z"/>
        <path class="st0" d="M424.69,351.31h-7.83v-35.62h7.83v35.62Z"/>
        <path class="st0" d="M444.22,344.09h14.54v7.23h-22.37v-35.62h7.83v28.39Z"/>
        <path class="st0" d="M479.41,315.78c11.27,0,20.74,5.08,20.74,17.81s-9.12,17.72-19.79,17.72h-12.99v-35.62h12.05v.09ZM479.5,344.09c6.97,0,12.56-2.84,12.56-10.84s-5.59-10.32-12.05-10.32h-4.82v21.08h4.3v.09Z"/>
        <path class="st0" d="M525.18,315.78h8.52l5.68,22.8h.09l7.4-22.8h7.31l7.4,23.4h.09l6.02-23.4h7.92l-10.41,35.62h-6.97l-7.83-24.61h-.09l-7.83,24.61h-6.71l-10.58-35.62h0Z"/>
        <path class="st0" d="M583.78,315.78h24.18v7.23h-16.35v6.63h15.4v7.23h-15.4v7.23h17.21v7.23h-25.12v-35.62l.09.09Z"/>
        <path class="st0" d="M615.78,351.31l15.4-35.62h6.45l15.49,35.62h-8.86l-3.1-7.57h-13.85l-2.93,7.57h-8.69.09ZM629.81,337.2h8.69l-4.39-11.1-4.3,11.1Z"/>
        <path class="st0" d="M669.13,344.09h14.54v7.23h-22.37v-35.62h7.83v28.39Z"/>
        <path class="st0" d="M684.36,315.78h28.13v6.97h-10.15v28.65h-7.83v-28.65h-10.15v-6.97h0Z"/>
        <path class="st0" d="M720.75,315.78h7.83v13.25h15.23v-13.25h7.83v35.62h-7.83v-15.4h-15.23v15.4h-7.83v-35.62h0Z"/>
      </g>
      <g>
        <path class="st0" d="M819.61,344.09h14.54v7.23h-22.37v-35.62h7.83v28.39Z"/>
        <path class="st0" d="M850.5,351.31h-7.83v-35.62h7.83v35.62Z"/>
        <path class="st0" d="M867.36,315.78l8.78,23.32h.09l8.95-23.32h8.43l-14.71,35.62h-6.28l-14.2-35.62h8.95,0Z"/>
        <path class="st0" d="M901.86,315.78h24.18v7.23h-16.35v6.63h15.4v7.23h-15.4v7.23h17.21v7.23h-25.12v-35.62l.09.09Z"/>
        <path class="st0" d="M970.27,315.78c6.28,0,12.73,1.55,12.73,9.03s-2.5,6.71-6.11,7.83h0c4.13.6,7.83,3.7,7.83,8.78,0,7.4-7.06,9.89-13.34,9.89h-14.63v-35.62h13.59l-.09.09ZM964.59,322.4v7.57h5.85c2.41,0,4.82-1.12,4.82-3.87s-2.75-3.7-5.16-3.7h-5.51,0ZM964.59,344.69h7.23c2.58,0,5.08-1.29,5.08-4.22s-3.53-3.96-6.11-3.96h-6.11v8.09l-.09.09Z"/>
        <path class="st0" d="M993.84,315.78h24.18v7.23h-16.35v6.63h15.4v7.23h-15.4v7.23h17.21v7.23h-25.12v-35.62l.09.09Z"/>
        <path class="st0" d="M1026.19,315.78h28.13v6.97h-10.15v28.65h-7.83v-28.65h-10.15v-6.97h0Z"/>
        <path class="st0" d="M1059.4,315.78h28.13v6.97h-10.15v28.65h-7.83v-28.65h-10.15v-6.97h0Z"/>
        <path class="st0" d="M1096.05,315.78h24.18v7.23h-16.35v6.63h15.4v7.23h-15.4v7.23h17.21v7.23h-25.12v-35.62l.09.09Z"/>
        <path class="st0" d="M1131.67,351.31v-35.62h14.02c6.45,0,13.16,2.15,13.16,10.84s-2.84,8.86-7.66,9.72l9.03,15.06h-9.38l-7.4-14.2h-3.87v14.2h-7.92ZM1144.41,330.49c3.61,0,6.37-.6,6.37-3.96s-2.15-4.13-5.85-4.13h-5.33v8.09h4.9-.09Z"/>
      </g>
      <path class="st0" d="M788.81,337.63h-14.11v-6.88h14.11v6.88Z"/>
    </g>
  </g>
</svg>